<svg width="26" height="26" viewBox="0 0 25 24" fill="none" xmlns="http://www.w3.org/2000/svg">
<g clip-path="url(#clip0_53_10958)">
<path d="M12.333 15C13.9899 15 15.333 13.6569 15.333 12C15.333 10.3431 13.9899 9 12.333 9C10.6762 9 9.33301 10.3431 9.33301 12C9.33301 13.6569 10.6762 15 12.333 15Z" stroke="#23F784" style="stroke:#23F784;stroke:color(display-p3 0.1373 0.9686 0.5176);stroke-opacity:1;" stroke-linecap="round" stroke-linejoin="round"/>
<path d="M19.733 15C19.5999 15.3016 19.5602 15.6362 19.619 15.9606C19.6778 16.285 19.8325 16.5843 20.063 16.82L20.123 16.88C20.309 17.0657 20.4565 17.2863 20.5571 17.5291C20.6578 17.7719 20.7096 18.0322 20.7096 18.295C20.7096 18.5578 20.6578 18.8181 20.5571 19.0609C20.4565 19.3037 20.309 19.5243 20.123 19.71C19.9373 19.896 19.7167 20.0435 19.4739 20.1441C19.2311 20.2448 18.9708 20.2966 18.708 20.2966C18.4452 20.2966 18.1849 20.2448 17.9421 20.1441C17.6993 20.0435 17.4788 19.896 17.293 19.71L17.233 19.65C16.9973 19.4195 16.698 19.2648 16.3736 19.206C16.0492 19.1472 15.7146 19.1869 15.413 19.32C15.1172 19.4468 14.865 19.6572 14.6873 19.9255C14.5096 20.1938 14.4143 20.5082 14.413 20.83V21C14.413 21.5304 14.2023 22.0391 13.8272 22.4142C13.4521 22.7893 12.9434 23 12.413 23C11.8826 23 11.3739 22.7893 10.9988 22.4142C10.6237 22.0391 10.413 21.5304 10.413 21V20.91C10.4053 20.579 10.2981 20.258 10.1055 19.9887C9.91291 19.7194 9.64374 19.5143 9.33301 19.4C9.03139 19.2669 8.69681 19.2272 8.37242 19.286C8.04802 19.3448 7.74869 19.4995 7.51301 19.73L7.45301 19.79C7.26726 19.976 7.04668 20.1235 6.80389 20.2241C6.56109 20.3248 6.30084 20.3766 6.03801 20.3766C5.77518 20.3766 5.51492 20.3248 5.27213 20.2241C5.02933 20.1235 4.80875 19.976 4.62301 19.79C4.43705 19.6043 4.28954 19.3837 4.18889 19.1409C4.08824 18.8981 4.03643 18.6378 4.03643 18.375C4.03643 18.1122 4.08824 17.8519 4.18889 17.6091C4.28954 17.3663 4.43705 17.1457 4.62301 16.96L4.68301 16.9C4.91354 16.6643 5.06819 16.365 5.12701 16.0406C5.18583 15.7162 5.14612 15.3816 5.01301 15.08C4.88624 14.7842 4.67576 14.532 4.40747 14.3543C4.13918 14.1766 3.82479 14.0813 3.50301 14.08H3.33301C2.80257 14.08 2.29387 13.8693 1.91879 13.4942C1.54372 13.1191 1.33301 12.6104 1.33301 12.08C1.33301 11.5496 1.54372 11.0409 1.91879 10.6658C2.29387 10.2907 2.80257 10.08 3.33301 10.08H3.42301C3.754 10.0723 4.07501 9.96512 4.34431 9.77251C4.6136 9.5799 4.81872 9.31074 4.93301 9C5.06612 8.69838 5.10583 8.36381 5.04701 8.03941C4.98819 7.71502 4.83354 7.41568 4.60301 7.18L4.54301 7.12C4.35705 6.93425 4.20954 6.71368 4.10889 6.47088C4.00824 6.22808 3.95643 5.96783 3.95643 5.705C3.95643 5.44217 4.00824 5.18192 4.10889 4.93912C4.20954 4.69632 4.35705 4.47575 4.54301 4.29C4.72875 4.10405 4.94933 3.95653 5.19213 3.85588C5.43492 3.75523 5.69518 3.70343 5.95801 3.70343C6.22084 3.70343 6.48109 3.75523 6.72389 3.85588C6.96668 3.95653 7.18726 4.10405 7.37301 4.29L7.43301 4.35C7.66869 4.58054 7.96802 4.73519 8.29242 4.794C8.61681 4.85282 8.95139 4.81312 9.25301 4.68H9.33301C9.62878 4.55324 9.88102 4.34276 10.0587 4.07447C10.2364 3.80618 10.3317 3.49179 10.333 3.17V3C10.333 2.46957 10.5437 1.96086 10.9188 1.58579C11.2939 1.21071 11.8026 1 12.333 1C12.8634 1 13.3721 1.21071 13.7472 1.58579C14.1223 1.96086 14.333 2.46957 14.333 3V3.09C14.3343 3.41179 14.4296 3.72618 14.6073 3.99447C14.785 4.26276 15.0372 4.47324 15.333 4.6C15.6346 4.73312 15.9692 4.77282 16.2936 4.714C16.618 4.65519 16.9173 4.50054 17.153 4.27L17.213 4.21C17.3988 4.02405 17.6193 3.87653 17.8621 3.77588C18.1049 3.67523 18.3652 3.62343 18.628 3.62343C18.8908 3.62343 19.1511 3.67523 19.3939 3.77588C19.6367 3.87653 19.8573 4.02405 20.043 4.21C20.229 4.39575 20.3765 4.61632 20.4771 4.85912C20.5778 5.10192 20.6296 5.36217 20.6296 5.625C20.6296 5.88783 20.5778 6.14808 20.4771 6.39088C20.3765 6.63368 20.229 6.85425 20.043 7.04L19.983 7.1C19.7525 7.33568 19.5978 7.63502 19.539 7.95941C19.4802 8.28381 19.5199 8.61838 19.653 8.92V9C19.7798 9.29577 19.9903 9.54802 20.2585 9.72569C20.5268 9.90337 20.8412 9.99872 21.163 10H21.333C21.8634 10 22.3721 10.2107 22.7472 10.5858C23.1223 10.9609 23.333 11.4696 23.333 12C23.333 12.5304 23.1223 13.0391 22.7472 13.4142C22.3721 13.7893 21.8634 14 21.333 14H21.243C20.9212 14.0013 20.6068 14.0966 20.3385 14.2743C20.0703 14.452 19.8598 14.7042 19.733 15Z" stroke="#23F784" style="stroke:#23F784;stroke:color(display-p3 0.1373 0.9686 0.5176);stroke-opacity:1;" stroke-linecap="round" stroke-linejoin="round"/>
</g>
<defs>
<clipPath id="clip0_53_10958">
<rect width="24" height="24" fill="white" style="fill:white;fill-opacity:1;" transform="translate(0.333008)"/>
</clipPath>
</defs>
</svg>
