<svg width="26" height="26" viewBox="0 0 25 24" fill="none" xmlns="http://www.w3.org/2000/svg">
<g clip-path="url(#clip0_53_11044)">
<path d="M19.083 14.25L15.333 18L9.33301 16.5L4.08301 12.75" stroke="#23F784" style="stroke:#23F784;stroke:color(display-p3 0.1373 0.9686 0.5176);stroke-opacity:1;" stroke-linecap="round" stroke-linejoin="round"/>
<path d="M7.14648 6.62156L12.3327 5.25L17.519 6.62156" stroke="#23F784" style="stroke:#23F784;stroke:color(display-p3 0.1373 0.9686 0.5176);stroke-opacity:1;" stroke-linecap="round" stroke-linejoin="round"/>
<path d="M3.55472 5.66427L1.16222 10.4511C1.0733 10.6289 1.05861 10.8348 1.12136 11.0234C1.18412 11.212 1.31919 11.368 1.4969 11.4571L4.08253 12.7499L7.14628 6.62146L4.56159 5.32958C4.47351 5.28541 4.37759 5.25903 4.2793 5.25194C4.18102 5.24486 4.08231 5.25721 3.9888 5.28829C3.8953 5.31937 3.80883 5.36857 3.73435 5.43309C3.65986 5.4976 3.59882 5.57616 3.55472 5.66427Z" stroke="#23F784" style="stroke:#23F784;stroke:color(display-p3 0.1373 0.9686 0.5176);stroke-opacity:1;" stroke-linecap="round" stroke-linejoin="round"/>
<path d="M20.5833 12.7499L23.1689 11.4571C23.3466 11.368 23.4817 11.212 23.5444 11.0234C23.6072 10.8348 23.5925 10.6289 23.5036 10.4511L21.1111 5.66427C21.067 5.57616 21.0059 5.4976 20.9315 5.43309C20.857 5.36857 20.7705 5.31937 20.677 5.28829C20.5835 5.25721 20.4848 5.24486 20.3865 5.25194C20.2882 5.25903 20.1923 5.28541 20.1042 5.32958L17.5195 6.62146L20.5833 12.7499Z" stroke="#23F784" style="stroke:#23F784;stroke:color(display-p3 0.1373 0.9686 0.5176);stroke-opacity:1;" stroke-linecap="round" stroke-linejoin="round"/>
<path d="M17.5834 6.75H13.8334L9.55281 10.9022C9.47324 10.9817 9.41257 11.0781 9.37532 11.1843C9.33806 11.2905 9.32517 11.4037 9.3376 11.5155C9.35002 11.6273 9.38744 11.7349 9.44709 11.8303C9.50674 11.9257 9.58709 12.0064 9.68219 12.0666C11.3237 13.1156 13.5522 13.0434 15.3334 11.25L19.0834 14.25L20.5834 12.75" stroke="#23F784" style="stroke:#23F784;stroke:color(display-p3 0.1373 0.9686 0.5176);stroke-opacity:1;" stroke-linecap="round" stroke-linejoin="round"/>
<path d="M11.9636 20.25L8.05238 19.2722L5.58301 17.5078" stroke="#23F784" style="stroke:#23F784;stroke:color(display-p3 0.1373 0.9686 0.5176);stroke-opacity:1;" stroke-linecap="round" stroke-linejoin="round"/>
</g>
<defs>
<clipPath id="clip0_53_11044">
<rect width="24" height="24" fill="white" style="fill:white;fill-opacity:1;" transform="translate(0.333008)"/>
</clipPath>
</defs>
</svg>
