<svg
				viewBox="0 0 919 786"
				fill="none"
				xmlns="http://www.w3.org/2000/svg"
			>
				<g filter="url(#filter0_d_713_4791)">
					<g clip-path="url(#clip0_713_4791)">
						<g clip-path="url(#clip1_713_4791)">
							<rect
								width="461.784"
								height="109.248"
								rx="9.10403"
								transform="matrix(0.976446 -0.215763 0.568787 0.822485 145 212.636)"
								fill="#23F784"
								style="fill:#23F784;fill:color(display-p3 0.1373 0.9686 0.5176);fill-opacity:1;"
							/>
							<path
								d="M283.277 244.27L268.777 223.303L274.502 222.038L291.163 233.446L289.65 218.691L295.375 217.426L309.874 238.392L305.074 239.453L295.339 225.376L296.466 237.971L292.661 238.812L278.342 229.132L288.077 243.209L283.277 244.27ZM326.186 235.202C323.697 235.752 321.241 235.777 318.818 235.277C316.405 234.751 314.153 233.787 312.062 232.384C309.982 230.956 308.203 229.174 306.725 227.038C305.248 224.901 304.417 222.909 304.233 221.063C304.073 219.21 304.564 217.629 305.706 216.317C306.873 215.001 308.701 214.067 311.19 213.517C314.2 212.852 317.101 212.936 319.891 213.77C322.681 214.604 325.107 216.116 327.169 218.308L321.942 219.463C320.861 218.413 319.608 217.688 318.184 217.289C316.77 216.865 315.269 216.828 313.681 217.179C312.211 217.504 311.15 218.084 310.498 218.919C309.855 219.728 309.622 220.735 309.799 221.939C309.962 223.123 310.561 224.464 311.597 225.961C312.619 227.439 313.787 228.654 315.102 229.607C316.416 230.559 317.795 231.21 319.239 231.558C320.706 231.902 322.174 231.911 323.644 231.586C325.232 231.235 326.312 230.663 326.884 229.869C327.441 229.055 327.508 228.085 327.085 226.959L332.347 225.796C333.378 228.077 333.362 230.049 332.298 231.711C331.234 233.373 329.197 234.537 326.186 235.202ZM341.024 231.509L326.525 210.543L335.841 208.484C337.856 208.039 339.728 207.959 341.456 208.245C343.184 208.531 344.706 209.092 346.023 209.929C347.339 210.766 348.433 211.814 349.303 213.072C350.104 214.23 350.534 215.366 350.594 216.481C350.655 217.595 350.235 218.609 349.336 219.521C348.422 220.414 346.935 221.088 344.872 221.543L340.356 222.541L345.825 230.449L341.024 231.509ZM338.099 219.277L342.33 218.342C343.871 218.001 344.773 217.468 345.036 216.742C345.309 215.991 345.108 215.127 344.431 214.148C343.713 213.11 342.817 212.387 341.743 211.98C340.679 211.548 339.376 211.502 337.835 211.842L333.604 212.777L338.099 219.277ZM380.053 223.3C378.251 223.698 376.46 223.794 374.679 223.589C372.921 223.379 371.282 222.867 369.762 222.052C368.265 221.231 367.015 220.115 366.011 218.702L371.096 217.579C371.548 218.193 372.124 218.71 372.825 219.13C373.526 219.551 374.288 219.843 375.111 220.006C375.945 220.144 376.8 220.117 377.677 219.923C378.435 219.755 379.018 219.511 379.425 219.191C379.842 218.846 380.074 218.449 380.12 218.002C380.166 217.554 380.009 217.071 379.65 216.552C379.236 215.953 378.713 215.493 378.081 215.172C377.473 214.846 376.764 214.611 375.954 214.468C375.168 214.32 374.296 214.224 373.339 214.183C372.391 214.116 371.388 214.05 370.332 213.984C367.991 213.88 365.989 213.494 364.324 212.825C362.684 212.152 361.352 211.077 360.33 209.599C359.461 208.341 359.07 207.184 359.16 206.129C359.274 205.068 359.805 204.156 360.754 203.394C361.702 202.632 362.994 202.07 364.63 201.709C366.313 201.337 367.956 201.262 369.557 201.483C371.169 201.68 372.659 202.156 374.029 202.912C375.423 203.663 376.56 204.655 377.44 205.888L372.32 207.019C371.978 206.565 371.515 206.172 370.931 205.841C370.357 205.485 369.726 205.244 369.039 205.12C368.338 204.975 367.631 204.982 366.92 205.139C366.29 205.255 365.776 205.461 365.379 205.756C365.006 206.045 364.789 206.404 364.729 206.832C364.68 207.234 364.834 207.695 365.193 208.214C365.539 208.713 365.971 209.101 366.49 209.377C367.033 209.649 367.655 209.857 368.356 210.001C369.043 210.125 369.818 210.219 370.681 210.281C371.531 210.324 372.446 210.363 373.428 210.4C374.909 210.487 376.344 210.665 377.732 210.933C379.106 211.182 380.371 211.628 381.526 212.27C382.681 212.913 383.7 213.873 384.584 215.151C385.343 216.249 385.704 217.343 385.665 218.434C385.627 219.524 385.156 220.503 384.253 221.37C383.373 222.232 381.973 222.875 380.053 223.3ZM401.442 218.573C399.64 218.971 397.819 219.005 395.979 218.676C394.148 218.32 392.441 217.65 390.858 216.665C389.285 215.654 387.966 214.38 386.903 212.843C385.812 211.265 385.232 209.794 385.162 208.428C385.102 207.037 385.525 205.851 386.43 204.868C387.322 203.865 388.68 203.162 390.505 202.759C392.283 202.366 394.064 202.352 395.847 202.718C397.63 203.083 399.276 203.744 400.784 204.7C402.292 205.656 403.537 206.843 404.517 208.26C404.655 208.46 404.814 208.69 404.993 208.949C405.159 209.189 405.308 209.444 405.44 209.714L390.897 212.927L389.198 210.471L398.977 208.311C398.229 207.348 397.283 206.671 396.137 206.279C395.016 205.883 393.898 205.807 392.784 206.053C391.978 206.232 391.342 206.556 390.875 207.028C390.395 207.479 390.174 208.069 390.213 208.797C390.276 209.52 390.645 210.37 391.322 211.349L391.922 212.217C392.489 213.036 393.163 213.715 393.947 214.256C394.741 214.771 395.587 215.125 396.485 215.318C397.37 215.491 398.251 215.48 399.128 215.286C400.005 215.093 400.618 214.773 400.966 214.328C401.337 213.877 401.493 213.371 401.432 212.809L406.339 211.725C406.656 212.737 406.686 213.708 406.428 214.64C406.171 215.572 405.625 216.383 404.791 217.074C403.957 217.764 402.841 218.264 401.442 218.573ZM413.979 215.389L403.539 200.293L407.806 199.35L410.195 202.034C410.166 201.28 410.313 200.603 410.635 200.003C410.981 199.397 411.48 198.872 412.13 198.429C412.804 197.981 413.65 197.645 414.67 197.419L417.632 201.702L415.996 202.064C415.285 202.221 414.669 202.438 414.15 202.713C413.654 202.984 413.291 203.329 413.061 203.748C412.818 204.147 412.764 204.642 412.9 205.234C413.036 205.825 413.387 206.531 413.953 207.349L418.779 214.328L413.979 215.389ZM433.329 211.113L416.311 197.471L421.361 196.355L433.614 206.665L430.25 194.391L435.264 193.283L439.161 209.824L433.329 211.113ZM456.655 206.373C454.853 206.771 453.032 206.805 451.191 206.475C449.361 206.12 447.654 205.45 446.071 204.465C444.497 203.454 443.179 202.18 442.116 200.643C441.025 199.065 440.445 197.594 440.375 196.228C440.315 194.837 440.737 193.65 441.643 192.668C442.534 191.665 443.893 190.962 445.718 190.559C447.496 190.166 449.277 190.152 451.06 190.518C452.843 190.883 454.489 191.544 455.997 192.5C457.505 193.456 458.749 194.642 459.73 196.06C459.868 196.26 460.027 196.489 460.206 196.749C460.372 196.989 460.521 197.243 460.653 197.513L446.109 200.727L444.411 198.271L454.189 196.11C453.442 195.148 452.495 194.471 451.35 194.079C450.229 193.682 449.111 193.607 447.997 193.853C447.191 194.031 446.554 194.356 446.088 194.827C445.607 195.279 445.387 195.869 445.426 196.597C445.488 197.319 445.858 198.17 446.534 199.148L447.135 200.017C447.701 200.836 448.376 201.515 449.16 202.056C449.953 202.571 450.799 202.925 451.698 203.118C452.583 203.291 453.463 203.28 454.341 203.086C455.218 202.892 455.83 202.573 456.178 202.128C456.55 201.677 456.705 201.171 456.645 200.609L461.552 199.525C461.869 200.536 461.899 201.508 461.641 202.44C461.384 203.371 460.838 204.183 460.004 204.873C459.17 205.564 458.053 206.064 456.655 206.373ZM469.191 203.188L458.752 188.093L463.019 187.15L465.408 189.833C465.379 189.08 465.525 188.403 465.848 187.802C466.194 187.197 466.692 186.672 467.342 186.229C468.016 185.781 468.863 185.444 469.882 185.219L472.844 189.502L471.209 189.864C470.497 190.021 469.882 190.237 469.362 190.513C468.866 190.784 468.504 191.129 468.274 191.548C468.031 191.947 467.977 192.442 468.113 193.034C468.249 193.625 468.6 194.33 469.166 195.149L473.992 202.128L469.191 203.188Z"
								fill="#00200F"
								style="fill:#00200F;fill:color(display-p3 0.0000 0.1250 0.0586);fill-opacity:1;"
							/>
						</g>
						<g clip-path="url(#clip2_713_4791)">
							<rect
								width="461.784"
								height="109.248"
								rx="9.10403"
								transform="matrix(0.976446 -0.215763 0.568787 0.822485 209.729 306.235)"
								fill="#23F784"
								style="fill:#23F784;fill:color(display-p3 0.1373 0.9686 0.5176);fill-opacity:1;"
							/>
							<path
								d="M348.005 337.869L333.506 316.903L349.721 313.32L351.978 316.584L340.564 319.107L344.437 324.707L353.576 322.688L355.771 325.863L346.633 327.882L352.805 336.808L348.005 337.869ZM367.657 333.526L357.218 318.431L361.485 317.488L363.873 320.171C363.844 319.418 363.991 318.741 364.313 318.14C364.659 317.534 365.158 317.01 365.808 316.567C366.482 316.119 367.328 315.782 368.348 315.557L371.31 319.84L369.674 320.201C368.963 320.359 368.347 320.575 367.828 320.851C367.332 321.122 366.969 321.467 366.739 321.886C366.496 322.285 366.442 322.78 366.578 323.372C366.714 323.963 367.065 324.668 367.631 325.487L372.457 332.466L367.657 333.526ZM388.5 329.335C387.007 329.665 385.636 329.738 384.388 329.553C383.126 329.348 382.023 328.959 381.08 328.385C380.146 327.786 379.389 327.067 378.809 326.228C378.174 325.309 377.887 324.441 377.949 323.621C378.035 322.797 378.497 322.062 379.335 321.416C380.196 320.765 381.48 320.251 383.187 319.874L387.632 318.892C387.121 318.153 386.581 317.57 386.013 317.143C385.431 316.697 384.808 316.408 384.144 316.279C383.481 316.149 382.734 316.176 381.904 316.359C381.004 316.558 380.351 316.898 379.945 317.379C379.55 317.835 379.516 318.418 379.843 319.128L375.185 320.158C374.558 319.053 374.331 318.033 374.503 317.097C374.686 316.136 375.218 315.305 376.099 314.604C377.004 313.897 378.192 313.382 379.662 313.057C381.345 312.685 382.968 312.602 384.532 312.809C386.096 313.016 387.521 313.495 388.806 314.247C390.091 314.999 391.19 316.034 392.101 317.352L398.563 326.697L394.51 327.593L392.382 325.404C392.397 325.861 392.337 326.289 392.203 326.687C392.068 327.085 391.847 327.456 391.538 327.8C391.23 328.145 390.821 328.442 390.311 328.693C389.815 328.964 389.211 329.178 388.5 329.335ZM387.484 325.969C388.1 325.832 388.583 325.622 388.933 325.338C389.293 325.028 389.54 324.674 389.675 324.276C389.796 323.858 389.806 323.418 389.705 322.957C389.615 322.471 389.433 321.97 389.159 321.455L389.138 321.425L385.475 322.234C384.741 322.397 384.191 322.61 383.828 322.875C383.474 323.114 383.287 323.397 383.267 323.724C383.247 324.05 383.361 324.393 383.61 324.753C383.886 325.152 384.22 325.458 384.613 325.671C385.006 325.883 385.452 326.015 385.952 326.065C386.452 326.116 386.962 326.084 387.484 325.969ZM403.042 325.707L392.602 310.612L396.834 309.677L398.613 311.597C398.684 310.753 399.038 310.018 399.672 309.395C400.317 308.746 401.243 308.288 402.452 308.021C403.353 307.822 404.228 307.744 405.077 307.786C405.927 307.829 406.755 307.979 407.563 308.238C408.394 308.492 409.188 308.869 409.944 309.37C410.041 308.404 410.465 307.574 411.214 306.879C411.963 306.184 412.966 305.698 414.222 305.42C415.787 305.074 417.277 305.056 418.693 305.365C420.095 305.653 421.402 306.239 422.614 307.122C423.849 308 424.971 309.168 425.979 310.626L431.986 319.312L427.221 320.364L421.463 312.038C420.635 310.84 419.715 309.984 418.704 309.471C417.717 308.952 416.643 308.822 415.481 309.078C414.722 309.246 414.157 309.555 413.786 310.005C413.414 310.456 413.269 311.017 413.352 311.689C413.458 312.357 413.801 313.11 414.381 313.948L419.932 321.975L415.131 323.036L409.373 314.709C408.545 313.511 407.625 312.656 406.614 312.142C405.603 311.629 404.505 311.503 403.32 311.765C402.585 311.928 402.032 312.234 401.66 312.685C401.312 313.13 401.179 313.689 401.262 314.361C401.368 315.028 401.711 315.781 402.291 316.62L407.842 324.647L403.042 325.707ZM445.37 316.769C443.569 317.167 441.747 317.201 439.907 316.871C438.076 316.516 436.369 315.845 434.786 314.86C433.213 313.85 431.895 312.576 430.831 311.038C429.741 309.461 429.16 307.989 429.09 306.623C429.03 305.233 429.453 304.046 430.358 303.063C431.25 302.06 432.608 301.357 434.434 300.954C436.212 300.561 437.992 300.548 439.775 300.913C441.559 301.279 443.204 301.939 444.712 302.895C446.221 303.851 447.465 305.038 448.445 306.456C448.583 306.655 448.742 306.885 448.922 307.144C449.087 307.384 449.236 307.639 449.368 307.909L434.825 311.123L433.127 308.666L442.905 306.506C442.157 305.543 441.211 304.866 440.066 304.474C438.944 304.078 437.826 304.003 436.712 304.249C435.906 304.427 435.27 304.752 434.803 305.223C434.323 305.674 434.102 306.264 434.141 306.992C434.204 307.715 434.573 308.565 435.25 309.544L435.851 310.412C436.417 311.231 437.092 311.911 437.875 312.451C438.669 312.966 439.515 313.32 440.413 313.513C441.298 313.686 442.179 313.675 443.056 313.482C443.933 313.288 444.546 312.968 444.894 312.523C445.266 312.073 445.421 311.566 445.36 311.004L450.267 309.92C450.584 310.932 450.614 311.904 450.357 312.835C450.099 313.767 449.553 314.578 448.719 315.269C447.885 315.96 446.769 316.459 445.37 316.769ZM460.733 312.96L445.031 299.027L449.76 297.982L461.716 309.462L460.807 309.628L456.338 296.528L461.672 295.35L474.106 306.69L473.202 306.924L468.25 293.896L472.98 292.851L478.156 309.109L473.178 310.209L460.247 298.565L461.243 298.345L465.711 311.859L460.733 312.96ZM494.503 305.912C492.796 306.289 491.027 306.3 489.197 305.945C487.376 305.565 485.655 304.874 484.034 303.874C482.424 302.849 481.087 301.568 480.023 300.03C478.932 298.453 478.371 296.989 478.338 295.638C478.316 294.261 478.764 293.092 479.683 292.129C480.589 291.147 481.895 290.467 483.602 290.089C485.332 289.707 487.108 289.706 488.929 290.086C490.759 290.442 492.48 291.132 494.091 292.157C495.711 293.157 497.06 294.436 498.137 295.993C499.214 297.551 499.764 299.017 499.787 300.394C499.819 301.745 499.383 302.911 498.477 303.894C497.558 304.857 496.233 305.529 494.503 305.912ZM492.079 302.407C492.885 302.229 493.486 301.912 493.881 301.457C494.3 300.996 494.46 300.397 494.36 299.659C494.283 298.916 493.907 298.056 493.23 297.077C492.554 296.099 491.805 295.332 490.984 294.777C490.172 294.197 489.336 293.817 488.475 293.639C487.624 293.436 486.807 293.421 486.025 293.594C485.267 293.761 484.685 294.086 484.279 294.567C483.86 295.027 483.689 295.629 483.765 296.372C483.852 297.09 484.233 297.938 484.91 298.916C485.586 299.894 486.33 300.674 487.141 301.254C487.976 301.829 488.813 302.209 489.65 302.392C490.511 302.57 491.321 302.575 492.079 302.407ZM507.494 302.627L497.055 287.531L501.322 286.588L503.711 289.272C503.682 288.518 503.828 287.841 504.151 287.241C504.497 286.635 504.995 286.11 505.645 285.667C506.319 285.219 507.166 284.883 508.185 284.657L511.147 288.94L509.511 289.302C508.8 289.459 508.185 289.676 507.665 289.952C507.169 290.222 506.806 290.567 506.577 290.986C506.334 291.385 506.28 291.88 506.416 292.472C506.551 293.063 506.902 293.769 507.469 294.587L512.295 301.566L507.494 302.627ZM533.778 296.819L520.416 290.241L522.557 281.896L528.21 280.647L525.26 291.139L523.043 287.935L539.752 295.499L533.778 296.819ZM522.044 299.412L507.131 277.847L511.931 276.786L526.844 298.351L522.044 299.412Z"
								fill="#00200F"
								style="fill:#00200F;fill:color(display-p3 0.0000 0.1250 0.0586);fill-opacity:1;"
							/>
							<path
								d="M293.979 351.727C295.353 352.266 296.76 351.956 297.122 351.033L303.027 335.994C303.389 335.071 302.569 333.886 301.196 333.347C299.822 332.808 298.415 333.119 298.053 334.041L292.804 347.409L272.909 339.597C271.536 339.058 270.129 339.369 269.766 340.292C269.404 341.215 270.224 342.4 271.597 342.939L293.979 351.727ZM257.093 295.769L254.87 296.26L292.413 350.547L294.635 350.056L296.858 349.565L259.315 295.278L257.093 295.769Z"
								fill="#00200F"
								style="fill:#00200F;fill:color(display-p3 0.0000 0.1250 0.0586);fill-opacity:1;"
							/>
						</g>
						<g clip-path="url(#clip3_713_4791)">
							<rect
								width="461.784"
								height="109.248"
								rx="9.10403"
								transform="matrix(0.976446 -0.215763 0.568787 0.822485 274.456 399.834)"
								fill="#23F784"
								style="fill:#23F784;fill:color(display-p3 0.1373 0.9686 0.5176);fill-opacity:1;"
							/>
							<path
								d="M412.734 431.468L398.234 410.501L403.959 409.236L420.62 420.644L419.107 405.889L424.832 404.624L439.331 425.59L434.531 426.651L424.796 412.574L425.923 425.169L422.118 426.01L407.799 416.33L417.534 430.407L412.734 431.468ZM452.834 423.021C451.127 423.398 449.358 423.409 447.528 423.054C445.707 422.674 443.986 421.984 442.366 420.984C440.755 419.958 439.418 418.677 438.355 417.14C437.264 415.562 436.702 414.098 436.67 412.747C436.647 411.371 437.095 410.201 438.015 409.239C438.92 408.256 440.226 407.576 441.933 407.199C443.663 406.816 445.439 406.815 447.26 407.196C449.09 407.551 450.811 408.241 452.422 409.266C454.043 410.266 455.392 411.545 456.469 413.102C457.546 414.66 458.095 416.127 458.118 417.503C458.15 418.854 457.714 420.021 456.809 421.003C455.889 421.966 454.564 422.639 452.834 423.021ZM450.41 419.517C451.216 419.339 451.817 419.022 452.213 418.566C452.632 418.105 452.791 417.506 452.691 416.768C452.615 416.026 452.238 415.165 451.562 414.187C450.885 413.208 450.136 412.441 449.315 411.886C448.504 411.306 447.667 410.927 446.806 410.749C445.955 410.545 445.139 410.53 444.356 410.703C443.598 410.871 443.016 411.195 442.611 411.676C442.191 412.137 442.02 412.739 442.097 413.481C442.183 414.199 442.564 415.047 443.241 416.025C443.918 417.004 444.661 417.783 445.473 418.363C446.308 418.939 447.144 419.318 447.981 419.501C448.842 419.679 449.652 419.684 450.41 419.517ZM474.039 418.335C472.403 418.697 470.699 418.682 468.926 418.291C467.176 417.895 465.52 417.179 463.956 416.144C462.393 415.108 461.093 413.841 460.058 412.344C458.994 410.806 458.423 409.367 458.343 408.027C458.273 406.661 458.655 405.495 459.49 404.528C460.334 403.536 461.574 402.859 463.209 402.497C464.489 402.214 465.754 402.165 467.002 402.35C468.25 402.535 469.426 402.931 470.529 403.539L464.709 395.122L469.509 394.061L484.423 415.627L480.156 416.57L478.193 414.621C478.127 415.119 477.953 415.618 477.67 416.117C477.411 416.612 476.99 417.05 476.407 417.432C475.824 417.814 475.035 418.115 474.039 418.335ZM472.733 414.55C473.681 414.34 474.387 413.977 474.849 413.461C475.322 412.919 475.532 412.274 475.479 411.526C475.426 410.778 475.103 409.975 474.509 409.116C473.915 408.257 473.189 407.543 472.33 406.973C471.472 406.403 470.551 406.02 469.567 405.823C468.594 405.601 467.633 405.594 466.685 405.804C465.784 406.003 465.097 406.373 464.625 406.915C464.138 407.437 463.91 408.074 463.939 408.828C463.991 409.576 464.308 410.369 464.888 411.208C465.495 412.086 466.228 412.81 467.087 413.38C467.969 413.945 468.897 414.338 469.871 414.561C470.854 414.758 471.808 414.754 472.733 414.55ZM497.98 413.045C496.178 413.443 494.357 413.478 492.516 413.148C490.686 412.792 488.979 412.122 487.396 411.137C485.822 410.127 484.504 408.853 483.441 407.315C482.35 405.738 481.77 404.266 481.7 402.9C481.64 401.509 482.062 400.323 482.968 399.34C483.859 398.337 485.218 397.634 487.043 397.231C488.821 396.838 490.602 396.824 492.385 397.19C494.168 397.556 495.814 398.216 497.322 399.172C498.83 400.128 500.074 401.315 501.055 402.732C501.193 402.932 501.352 403.162 501.531 403.421C501.697 403.661 501.846 403.916 501.978 404.186L487.435 407.399L485.736 404.943L495.515 402.783C494.767 401.82 493.82 401.143 492.675 400.751C491.554 400.355 490.436 400.279 489.322 400.526C488.516 400.704 487.879 401.028 487.413 401.5C486.933 401.951 486.712 402.541 486.751 403.269C486.813 403.992 487.183 404.842 487.86 405.821L488.46 406.689C489.026 407.508 489.701 408.188 490.485 408.728C491.278 409.243 492.124 409.597 493.023 409.79C493.908 409.963 494.789 409.952 495.666 409.759C496.543 409.565 497.155 409.245 497.503 408.8C497.875 408.35 498.031 407.843 497.97 407.281L502.877 406.197C503.194 407.209 503.224 408.181 502.966 409.112C502.709 410.044 502.163 410.855 501.329 411.546C500.495 412.236 499.378 412.736 497.98 413.045ZM510.517 409.861L495.603 388.296L500.404 387.235L515.317 408.8L510.517 409.861Z"
								fill="#00200F"
								style="fill:#00200F;fill:color(display-p3 0.0000 0.1250 0.0586);fill-opacity:1;"
							/>
							<path
								d="M358.708 445.326C360.081 445.865 361.488 445.555 361.851 444.632L367.755 429.593C368.118 428.67 367.298 427.485 365.924 426.946C364.551 426.407 363.144 426.718 362.781 427.64L357.533 441.008L337.638 433.196C336.264 432.657 334.857 432.968 334.495 433.891C334.133 434.814 334.952 435.999 336.326 436.538L358.708 445.326ZM321.821 389.368L319.599 389.859L357.141 444.146L359.364 443.655L361.586 443.164L324.044 388.877L321.821 389.368Z"
								fill="#00200F"
								style="fill:#00200F;fill:color(display-p3 0.0000 0.1250 0.0586);fill-opacity:1;"
							/>
						</g>
						<g clip-path="url(#clip4_713_4791)">
							<rect
								width="461.784"
								height="109.248"
								rx="9.10403"
								transform="matrix(0.976446 -0.215763 0.568787 0.822485 339.185 493.433)"
								fill="#00200F"
								style="fill:#00200F;fill:color(display-p3 0.0000 0.1250 0.0586);fill-opacity:1;"
							/>
							<path
								d="M477.675 525.02L463.176 504.053L466.163 503.393L472.729 512.888L476.546 501.099L480.315 500.266L476.849 510.666L494.957 521.201L491.33 522.002L476.062 513.084L475.008 516.183L480.662 524.36L477.675 525.02ZM498.263 520.47L487.824 505.375L490.526 504.778L492.491 507.382C492.411 506.318 492.713 505.411 493.397 504.661C494.091 503.886 495.114 503.35 496.465 503.051C497.863 502.742 499.238 502.714 500.589 502.968C501.926 503.202 503.21 503.736 504.442 504.568C505.66 505.381 506.773 506.516 507.781 507.974L514.016 516.99L511.029 517.65L504.98 508.904C503.931 507.386 502.741 506.337 501.41 505.756C500.103 505.17 498.727 505.037 497.281 505.357C496.285 505.577 495.541 505.983 495.049 506.575C494.543 507.147 494.322 507.875 494.386 508.759C494.46 509.617 494.891 510.615 495.678 511.753L501.25 519.81L498.263 520.47ZM526.931 514.55C525.271 514.917 523.557 514.927 521.787 514.582C520.004 514.216 518.326 513.528 516.753 512.518C515.166 511.487 513.827 510.183 512.736 508.606C511.617 506.988 511.03 505.507 510.974 504.161C510.928 502.79 511.347 501.638 512.233 500.706C513.128 499.749 514.406 499.087 516.065 498.72C517.772 498.343 519.505 498.34 521.265 498.71C523.034 499.056 524.712 499.744 526.299 500.775C527.896 501.78 529.247 503.081 530.352 504.679C531.457 506.276 532.032 507.76 532.078 509.131C532.111 510.482 531.691 511.634 530.819 512.586C529.934 513.518 528.637 514.173 526.931 514.55ZM525.475 512.386C526.494 512.16 527.297 511.741 527.885 511.128C528.458 510.495 528.72 509.689 528.672 508.71C528.623 507.731 528.164 506.612 527.294 505.354C526.41 504.076 525.406 503.078 524.281 502.36C523.165 501.617 522.024 501.132 520.857 500.907C519.7 500.656 518.6 500.646 517.557 500.876C516.561 501.096 515.765 501.526 515.168 502.164C514.581 502.777 514.311 503.573 514.36 504.552C514.418 505.506 514.889 506.622 515.773 507.9C516.643 509.158 517.636 510.159 518.751 510.902C519.89 511.64 521.038 512.135 522.195 512.385C523.362 512.611 524.456 512.611 525.475 512.386ZM542.727 510.645L527.025 496.713L530.012 496.053L542.904 507.878L542.37 507.996L538.012 494.285L541.39 493.538L554.688 505.24L554.14 505.396L549.391 491.77L552.413 491.102L557.626 507.353L554.568 508.029L540.677 495.767L541.282 495.634L545.785 509.97L542.727 510.645ZM566.22 505.454L551.307 483.889L554.293 483.229L569.207 504.794L566.22 505.454ZM582.244 502.328C580.561 502.7 578.84 502.7 577.08 502.329C575.344 501.953 573.702 501.257 572.152 500.242C570.589 499.206 569.262 497.899 568.171 496.322C567.066 494.724 566.462 493.258 566.358 491.923C566.279 490.582 566.663 489.439 567.511 488.492C568.383 487.539 569.672 486.875 571.379 486.497C573.133 486.11 574.842 486.112 576.507 486.504C578.196 486.89 579.733 487.552 581.118 488.489C582.514 489.4 583.654 490.495 584.537 491.773C584.675 491.973 584.82 492.182 584.972 492.402C585.124 492.622 585.285 492.874 585.455 493.159L570.805 496.396L569.458 494.449L581.228 491.848C580.204 490.486 578.913 489.528 577.355 488.975C575.821 488.416 574.295 488.304 572.778 488.64C571.759 488.865 570.949 489.274 570.348 489.867C569.757 490.435 569.463 491.156 569.466 492.03C569.456 492.884 569.837 493.87 570.61 494.989L571.19 495.827C572.046 497.065 573.025 498.046 574.127 498.769C575.252 499.488 576.386 499.962 577.529 500.193C578.697 500.418 579.778 500.421 580.774 500.201C582.03 499.923 582.902 499.466 583.391 498.829C583.889 498.166 584.04 497.396 583.843 496.519L586.794 495.867C587.131 496.828 587.193 497.747 586.979 498.623C586.765 499.499 586.269 500.264 585.492 500.919C584.726 501.549 583.643 502.019 582.244 502.328ZM602.49 497.854C600.759 498.236 599.007 498.232 597.234 497.841C595.447 497.431 593.783 496.705 592.244 495.664C590.704 494.623 589.409 493.344 588.36 491.826C587.311 490.309 586.734 488.882 586.631 487.547C586.513 486.192 586.872 485.031 587.706 484.064C588.564 483.091 589.858 482.414 591.589 482.032C593.058 481.707 594.511 481.674 595.947 481.932C597.406 482.185 598.743 482.695 599.957 483.463L593.764 474.507L596.751 473.847L611.664 495.412L608.962 496.01L606.994 493.579C606.959 494.162 606.798 494.738 606.509 495.308C606.206 495.859 605.737 496.365 605.101 496.828C604.45 497.271 603.58 497.613 602.49 497.854ZM601.333 495.589C602.518 495.327 603.396 494.857 603.965 494.179C604.535 493.5 604.778 492.687 604.696 491.738C604.6 490.77 604.152 489.706 603.351 488.548C602.564 487.41 601.624 486.467 600.533 485.718C599.441 484.969 598.279 484.455 597.047 484.175C595.815 483.895 594.606 483.885 593.421 484.147C592.259 484.404 591.394 484.872 590.824 485.55C590.255 486.228 590.018 487.052 590.114 488.02C590.21 488.989 590.652 490.042 591.439 491.18C592.24 492.338 593.186 493.292 594.277 494.04C595.355 494.769 596.51 495.274 597.742 495.554C598.975 495.834 600.172 495.846 601.333 495.589ZM628.522 499.698C626.91 500.054 625.352 500.191 623.847 500.11C622.379 500.042 621.053 499.725 619.869 499.159C618.684 498.592 617.726 497.779 616.994 496.721C616.676 496.261 616.445 495.749 616.299 495.182C616.177 494.611 616.216 494.015 616.416 493.396C616.64 492.771 617.123 492.146 617.867 491.521L620.633 492.084C619.681 492.801 619.208 493.481 619.215 494.124C619.236 494.787 619.413 495.358 619.744 495.837C620.2 496.496 620.805 496.995 621.559 497.335C622.313 497.675 623.169 497.865 624.127 497.907C625.085 497.948 626.074 497.857 627.093 497.631C628.112 497.406 628.906 497.092 629.476 496.69C630.045 496.288 630.379 495.823 630.478 495.295C630.577 494.767 630.42 494.203 630.006 493.604C629.522 492.905 628.807 492.384 627.859 492.041C626.925 491.718 625.565 491.708 623.78 492.01C622.326 492.239 621.076 492.389 620.031 492.459C618.987 492.528 618.094 492.541 617.353 492.498C616.599 492.434 615.925 492.33 615.333 492.185C614.764 492.034 614.224 491.866 613.713 491.679L613.236 490.991L614.697 487.353L617.831 487.558L616.14 491.04L615.877 489.889C616.248 489.991 616.601 490.086 616.934 490.173C617.268 490.261 617.671 490.31 618.143 490.321C618.615 490.332 619.234 490.298 620.001 490.221C620.791 490.138 621.806 490.006 623.047 489.824C624.751 489.563 626.221 489.514 627.455 489.679C628.713 489.838 629.776 490.19 630.645 490.735C631.537 491.274 632.287 491.983 632.895 492.862C633.489 493.72 633.763 494.592 633.719 495.477C633.713 496.376 633.301 497.203 632.485 497.959C631.668 498.715 630.347 499.295 628.522 499.698ZM620.408 488.025C618.915 488.355 617.469 488.398 616.071 488.154C614.697 487.906 613.461 487.442 612.363 486.764C611.252 486.066 610.351 485.217 609.66 484.219C608.97 483.221 608.621 482.262 608.614 481.343C608.631 480.418 608.995 479.601 609.706 478.891C610.404 478.162 611.5 477.632 612.993 477.302C614.487 476.972 615.928 476.941 617.316 477.21C618.69 477.459 619.926 477.922 621.024 478.6C622.121 479.279 623.015 480.117 623.706 481.115C624.396 482.114 624.752 483.083 624.773 484.022C624.78 484.941 624.428 485.755 623.716 486.465C623.004 487.175 621.902 487.695 620.408 488.025ZM618.979 485.958C620.259 485.675 621.074 485.173 621.422 484.451C621.77 483.73 621.571 482.83 620.826 481.752C620.094 480.694 619.167 479.966 618.046 479.569C616.924 479.173 615.723 479.116 614.443 479.399C613.187 479.676 612.361 480.181 611.965 480.913C611.593 481.64 611.773 482.532 612.505 483.59C613.251 484.669 614.196 485.404 615.341 485.795C616.487 486.187 617.699 486.241 618.979 485.958ZM617.628 479.144L615.269 477.214L622.594 475.595L623.899 477.482L617.628 479.144ZM643.881 488.708C642.198 489.08 640.477 489.08 638.717 488.709C636.981 488.333 635.339 487.637 633.789 486.622C632.226 485.586 630.898 484.28 629.808 482.702C628.703 481.105 628.099 479.638 627.995 478.303C627.915 476.963 628.3 475.819 629.148 474.872C630.019 473.92 631.309 473.255 633.016 472.878C634.77 472.49 636.479 472.492 638.144 472.884C639.832 473.27 641.369 473.932 642.755 474.869C644.151 475.781 645.29 476.875 646.174 478.153C646.312 478.353 646.457 478.563 646.609 478.782C646.761 479.002 646.922 479.254 647.091 479.539L632.441 482.776L631.095 480.829L642.865 478.229C641.841 476.866 640.55 475.909 638.992 475.355C637.458 474.796 635.932 474.685 634.415 475.02C633.396 475.245 632.586 475.654 631.985 476.248C631.394 476.816 631.1 477.537 631.103 478.411C631.092 479.265 631.474 480.251 632.247 481.369L632.827 482.208C633.683 483.446 634.662 484.426 635.763 485.15C636.889 485.868 638.023 486.342 639.166 486.573C640.333 486.799 641.415 486.801 642.41 486.581C643.667 486.304 644.539 485.846 645.028 485.209C645.526 484.546 645.677 483.776 645.48 482.899L648.431 482.247C648.768 483.208 648.829 484.127 648.615 485.003C648.401 485.879 647.906 486.644 647.129 487.3C646.362 487.929 645.28 488.399 643.881 488.708ZM665.607 483.493L651.108 462.527L659.855 460.594C661.609 460.206 663.221 460.126 664.69 460.354C666.17 460.557 667.477 461.004 668.612 461.697C669.733 462.37 670.639 463.206 671.329 464.204C672.075 465.283 672.412 466.244 672.34 467.089C672.292 467.928 671.949 468.637 671.31 469.215C670.696 469.788 669.918 470.225 668.978 470.525L669.268 470.115C670.349 469.9 671.498 469.922 672.717 470.182C673.935 470.442 675.074 470.904 676.134 471.568C677.218 472.226 678.091 473.034 678.754 473.993C679.486 475.051 679.848 476.088 679.839 477.102C679.816 478.097 679.38 478.988 678.53 479.774C677.69 480.535 676.393 481.109 674.639 481.497L665.607 483.493ZM667.144 480.736L672.869 479.471C674.552 479.099 675.628 478.482 676.097 477.618C676.575 476.73 676.401 475.687 675.572 474.489C674.757 473.311 673.622 472.479 672.167 471.995C670.722 471.486 669.158 471.417 667.474 471.789L661.821 473.039L667.144 480.736ZM660.433 471.032L665.98 469.806C667.592 469.45 668.592 468.861 668.98 468.038C669.391 467.211 669.217 466.248 668.458 465.15C667.726 464.091 666.712 463.337 665.417 462.887C664.145 462.431 662.668 462.389 660.985 462.761L655.545 463.963L660.433 471.032ZM692.935 477.869C691.489 478.188 690.135 478.246 688.873 478.041C687.597 477.817 686.48 477.407 685.523 476.813C684.552 476.199 683.776 475.473 683.196 474.634C682.492 473.616 682.206 472.689 682.339 471.854C682.482 470.994 682.998 470.258 683.888 469.647C684.787 469.011 686.019 468.52 687.583 468.175L692.313 467.13C691.664 466.191 690.947 465.452 690.164 464.911C689.39 464.346 688.561 463.976 687.676 463.803C686.815 463.625 685.899 463.644 684.927 463.859C683.789 464.11 682.971 464.567 682.472 465.23C681.974 465.892 681.955 466.714 682.414 467.694L679.356 468.37C678.753 467.26 678.558 466.267 678.772 465.391C678.996 464.49 679.534 463.727 680.386 463.101C681.223 462.455 682.247 461.999 683.456 461.732C685.115 461.365 686.67 461.321 688.119 461.599C689.579 461.852 690.899 462.378 692.079 463.176C693.246 463.954 694.257 464.962 695.113 466.2L701.576 475.545L698.909 476.134L696.887 473.508C696.94 473.979 696.908 474.447 696.791 474.91C696.684 475.348 696.479 475.762 696.174 476.151C695.856 476.521 695.432 476.856 694.902 477.158C694.396 477.453 693.741 477.691 692.935 477.869ZM691.926 475.64C692.756 475.457 693.406 475.152 693.876 474.726C694.357 474.274 694.661 473.746 694.79 473.142C694.905 472.519 694.867 471.871 694.676 471.2C694.509 470.523 694.191 469.845 693.721 469.166L693.659 469.076L689.179 470.066C688.017 470.323 687.164 470.65 686.618 471.047C686.059 471.423 685.77 471.855 685.752 472.343C685.72 472.81 685.883 473.304 686.242 473.823C686.615 474.362 687.082 474.8 687.643 475.136C688.227 475.467 688.88 475.68 689.6 475.774C690.345 475.863 691.12 475.818 691.926 475.64ZM713.201 473.39C711.707 473.72 710.259 473.799 708.854 473.626C707.474 473.447 706.196 473.062 705.022 472.47C703.857 471.853 702.851 471.05 702.005 470.064L705.063 469.388C705.54 469.881 706.121 470.305 706.804 470.661C707.487 471.016 708.245 471.263 709.079 471.401C709.922 471.514 710.818 471.466 711.766 471.256C712.595 471.073 713.214 470.821 713.621 470.501C714.014 470.161 714.217 469.782 714.229 469.365C714.265 468.943 714.138 468.522 713.848 468.103C713.42 467.484 712.918 467.054 712.341 466.813C711.789 466.567 711.118 466.427 710.33 466.394C709.528 466.341 708.605 466.349 707.56 466.419C706.695 466.472 705.814 466.483 704.917 466.451C704.021 466.418 703.166 466.308 702.352 466.12C701.525 465.911 700.767 465.607 700.08 465.206C699.417 464.8 698.844 464.248 698.36 463.549C697.767 462.69 697.503 461.874 697.569 461.1C697.621 460.305 698.001 459.611 698.711 459.017C699.444 458.418 700.463 457.974 701.767 457.686C703.687 457.262 705.509 457.308 707.233 457.825C708.956 458.342 710.436 459.315 711.671 460.746L708.72 461.398C708.076 460.665 707.278 460.163 706.324 459.89C705.38 459.592 704.34 459.569 703.202 459.82C702.087 460.067 701.365 460.445 701.035 460.955C700.728 461.46 700.789 462.022 701.217 462.641C701.493 463.041 701.896 463.366 702.425 463.617C702.964 463.844 703.618 463.998 704.386 464.082C705.178 464.16 706.085 464.167 707.106 464.102C708.415 464.02 709.66 464.022 710.839 464.106C712.018 464.191 713.111 464.467 714.118 464.936C715.134 465.378 716.016 466.139 716.761 467.217C717.41 468.156 717.692 469.037 717.606 469.862C717.544 470.681 717.142 471.403 716.399 472.028C715.642 472.632 714.576 473.087 713.201 473.39ZM732.152 469.203C730.469 469.575 728.747 469.575 726.988 469.204C725.252 468.828 723.609 468.133 722.06 467.117C720.496 466.081 719.169 464.775 718.078 463.197C716.974 461.6 716.37 460.133 716.266 458.798C716.186 457.458 716.57 456.314 717.419 455.367C718.29 454.415 719.58 453.75 721.286 453.373C723.041 452.985 724.75 452.987 726.415 453.379C728.103 453.765 729.64 454.427 731.026 455.364C732.422 456.276 733.561 457.37 734.445 458.648C734.583 458.848 734.728 459.058 734.88 459.277C735.032 459.497 735.193 459.749 735.362 460.034L720.712 463.271L719.366 461.324L731.136 458.724C730.112 457.361 728.821 456.404 727.263 455.85C725.729 455.291 724.203 455.18 722.686 455.515C721.667 455.74 720.856 456.149 720.256 456.743C719.665 457.311 719.371 458.032 719.374 458.906C719.363 459.76 719.745 460.746 720.518 461.864L721.098 462.703C721.954 463.941 722.933 464.921 724.034 465.645C725.159 466.363 726.294 466.837 727.437 467.068C728.604 467.294 729.686 467.296 730.681 467.076C731.938 466.799 732.81 466.341 733.298 465.704C733.797 465.041 733.947 464.271 733.751 463.394L736.702 462.742C737.039 463.703 737.1 464.622 736.886 465.498C736.672 466.374 736.177 467.139 735.4 467.795C734.633 468.424 733.55 468.894 732.152 469.203Z"
								fill="#23F784"
								style="fill:#23F784;fill:color(display-p3 0.1373 0.9686 0.5176);fill-opacity:1;"
							/>
							<path
								d="M423.436 538.925C424.81 539.464 426.217 539.154 426.579 538.231L432.484 523.192C432.846 522.269 432.026 521.084 430.653 520.545C429.279 520.006 427.872 520.317 427.51 521.239L422.261 534.607L402.366 526.795C400.993 526.256 399.586 526.567 399.223 527.49C398.861 528.413 399.681 529.598 401.054 530.137L423.436 538.925ZM386.55 482.967L384.327 483.458L421.87 537.745L424.092 537.254L426.315 536.763L388.772 482.476L386.55 482.967Z"
								fill="#23F784"
								style="fill:#23F784;fill:color(display-p3 0.1373 0.9686 0.5176);fill-opacity:1;"
							/>
						</g>
						<g clip-path="url(#clip5_713_4791)">
							<rect
								width="461.784"
								height="109.248"
								rx="9.10403"
								transform="matrix(0.976446 -0.215763 0.568787 0.822485 403.913 587.032)"
								fill="#00200F"
								style="fill:#00200F;fill:color(display-p3 0.0000 0.1250 0.0586);fill-opacity:1;"
							/>
							<path
								d="M549.871 616.969L526.02 598.069L529.256 597.354L549.77 613.918L545.044 593.865L548.209 593.166L553.356 616.199L549.871 616.969ZM571.935 612.508C570.276 612.874 568.562 612.885 566.792 612.539C565.009 612.173 563.331 611.485 561.757 610.475C560.17 609.445 558.831 608.141 557.741 606.563C556.622 604.946 556.035 603.464 555.979 602.118C555.932 600.748 556.352 599.596 557.238 598.664C558.133 597.706 559.411 597.044 561.07 596.677C562.777 596.3 564.51 596.297 566.269 596.668C568.039 597.013 569.717 597.702 571.304 598.732C572.901 599.737 574.252 601.039 575.357 602.636C576.461 604.233 577.037 605.718 577.083 607.088C577.116 608.439 576.696 609.591 575.824 610.543C574.938 611.476 573.642 612.13 571.935 612.508ZM570.48 610.343C571.499 610.118 572.302 609.699 572.889 609.086C573.463 608.452 573.725 607.646 573.676 606.667C573.628 605.688 573.169 604.57 572.299 603.312C571.415 602.034 570.41 601.036 569.285 600.318C568.17 599.574 567.029 599.09 565.862 598.864C564.705 598.613 563.604 598.603 562.561 598.834C561.566 599.054 560.769 599.483 560.172 600.121C559.585 600.734 559.316 601.531 559.365 602.51C559.423 603.464 559.894 604.579 560.778 605.857C561.648 607.115 562.64 608.116 563.756 608.859C564.895 609.598 566.043 610.092 567.2 610.343C568.367 610.568 569.46 610.568 570.48 610.343ZM585.049 609.196L574.609 594.1L577.596 593.44L588.036 608.536L585.049 609.196ZM573.887 590.565C573.294 590.696 572.686 590.646 572.062 590.416C571.448 590.16 570.968 589.783 570.623 589.284C570.278 588.784 570.191 588.343 570.363 587.96C570.545 587.551 570.933 587.282 571.525 587.151C572.094 587.025 572.691 587.077 573.315 587.308C573.925 587.518 574.402 587.873 574.748 588.372C575.093 588.871 575.181 589.335 575.013 589.764C574.831 590.172 574.455 590.439 573.887 590.565ZM601.627 605.947C599.944 606.319 598.199 606.324 596.392 605.964C594.609 605.598 592.93 604.91 591.357 603.9C589.77 602.869 588.438 601.575 587.361 600.018C586.256 598.421 585.676 596.949 585.62 595.603C585.564 594.258 585.971 593.109 586.843 592.156C587.725 591.179 589.007 590.504 590.69 590.132C592.824 589.661 594.926 589.737 596.998 590.361C599.055 590.966 600.812 592.004 602.269 593.478L599.211 594.154C598.324 593.268 597.24 592.667 595.956 592.352C594.673 592.038 593.403 592.019 592.146 592.297C591.127 592.522 590.331 592.951 589.757 593.584C589.17 594.197 588.913 594.991 588.985 595.965C589.057 596.938 589.528 598.054 590.398 599.312C591.047 600.251 591.781 601.055 592.6 601.726C593.406 602.377 594.235 602.884 595.088 603.248C595.941 603.612 596.801 603.848 597.668 603.956C598.544 604.038 599.362 603.996 600.121 603.828C600.974 603.639 601.669 603.359 602.204 602.988C602.726 602.596 603.065 602.118 603.222 601.554C603.378 600.99 603.325 600.381 603.063 599.725L606.121 599.049C606.791 600.651 606.735 602.09 605.952 603.368C605.178 604.621 603.737 605.48 601.627 605.947ZM621.762 601.497C620.079 601.869 618.358 601.87 616.598 601.499C614.863 601.123 613.22 600.427 611.67 599.411C610.107 598.376 608.78 597.069 607.689 595.492C606.584 593.894 605.98 592.428 605.877 591.093C605.797 589.752 606.181 588.608 607.029 587.661C607.901 586.709 609.19 586.044 610.897 585.667C612.651 585.28 614.361 585.282 616.025 585.673C617.714 586.06 619.251 586.722 620.636 587.658C622.032 588.57 623.172 589.665 624.056 590.943C624.194 591.143 624.339 591.352 624.491 591.572C624.642 591.791 624.803 592.044 624.973 592.328L610.323 595.566L608.976 593.619L620.746 591.018C619.722 589.656 618.431 588.698 616.874 588.145C615.339 587.586 613.814 587.474 612.297 587.809C611.277 588.035 610.467 588.444 609.866 589.037C609.275 589.605 608.981 590.326 608.984 591.2C608.974 592.054 609.355 593.04 610.128 594.158L610.708 594.997C611.564 596.235 612.543 597.216 613.645 597.939C614.77 598.657 615.904 599.132 617.048 599.363C618.215 599.588 619.296 599.591 620.292 599.371C621.548 599.093 622.421 598.636 622.909 597.998C623.407 597.336 623.558 596.566 623.361 595.689L626.313 595.036C626.649 595.998 626.711 596.917 626.497 597.793C626.283 598.668 625.787 599.434 625.011 600.089C624.244 600.719 623.161 601.188 621.762 601.497Z"
								fill="#23F784"
								style="fill:#23F784;fill:color(display-p3 0.1373 0.9686 0.5176);fill-opacity:1;"
							/>
							<path
								d="M488.165 632.524C489.538 633.064 490.945 632.753 491.308 631.83L497.212 616.791C497.575 615.869 496.755 614.683 495.381 614.144C494.008 613.605 492.601 613.916 492.238 614.838L486.99 628.206L467.095 620.394C465.721 619.855 464.314 620.166 463.952 621.089C463.59 622.012 464.409 623.197 465.783 623.736L488.165 632.524ZM451.278 576.566L449.056 577.057L486.598 631.344L488.821 630.853L491.043 630.362L453.501 576.075L451.278 576.566Z"
								fill="#23F784"
								style="fill:#23F784;fill:color(display-p3 0.1373 0.9686 0.5176);fill-opacity:1;"
							/>
						</g>
						<g clip-path="url(#clip6_713_4791)">
							<rect
								width="461.784"
								height="109.248"
								rx="9.10403"
								transform="matrix(0.976446 -0.215763 0.568787 0.822485 468.641 680.631)"
								fill="#00200F"
								style="fill:#00200F;fill:color(display-p3 0.0000 0.1250 0.0586);fill-opacity:1;"
							/>
							<path
								d="M618.19 710.188C615.772 710.723 613.363 710.737 610.964 710.231C608.574 709.7 606.346 708.731 604.28 707.323C602.199 705.895 600.413 704.103 598.922 701.947C597.431 699.79 596.6 697.798 596.429 695.972C596.245 694.125 596.72 692.558 597.853 691.272C598.995 689.961 600.776 689.038 603.194 688.503C606.038 687.875 608.743 687.933 611.308 688.679C613.873 689.424 616.123 690.78 618.056 692.746L614.75 693.477C613.473 692.263 611.984 691.395 610.284 690.873C608.57 690.331 606.718 690.28 604.726 690.72C602.948 691.113 601.649 691.803 600.829 692.79C599.994 693.757 599.67 694.968 599.857 696.423C600.029 697.858 600.737 699.474 601.98 701.271C603.223 703.068 604.648 704.537 606.257 705.678C607.852 706.799 609.543 707.564 611.33 707.975C613.104 708.366 614.879 708.365 616.657 707.972C618.648 707.532 619.962 706.804 620.599 705.789C621.222 704.753 621.282 703.555 620.777 702.193L624.084 701.462C624.981 703.589 624.934 705.418 623.943 706.949C622.952 708.48 621.034 709.56 618.19 710.188ZM632.442 706.625L617.528 685.06L620.515 684.4L626.75 693.415C626.721 692.386 627.061 691.493 627.768 690.739C628.5 689.978 629.506 689.457 630.786 689.174C632.161 688.87 633.523 688.845 634.874 689.099C636.211 689.333 637.484 689.869 638.692 690.707C639.9 691.545 641.008 692.693 642.016 694.151L648.23 703.136L645.278 703.788L639.251 695.072C638.201 693.555 637.035 692.501 635.752 691.909C634.455 691.298 633.083 691.153 631.637 691.472C630.618 691.697 629.838 692.111 629.298 692.714C628.782 693.311 628.557 694.052 628.621 694.935C628.686 695.819 629.111 696.83 629.898 697.968L635.429 705.965L632.442 706.625ZM658.975 701.176C657.529 701.496 656.175 701.553 654.913 701.349C653.637 701.124 652.521 700.715 651.563 700.121C650.592 699.507 649.817 698.78 649.237 697.942C648.532 696.923 648.247 695.997 648.38 695.162C648.523 694.301 649.039 693.566 649.928 692.955C650.827 692.319 652.059 691.828 653.624 691.482L658.353 690.437C657.704 689.499 656.988 688.759 656.204 688.219C655.43 687.653 654.601 687.284 653.716 687.111C652.855 686.933 651.939 686.951 650.967 687.166C649.829 687.418 649.011 687.875 648.513 688.537C648.014 689.2 647.995 690.021 648.454 691.002L645.396 691.677C644.793 690.568 644.598 689.575 644.812 688.699C645.036 687.798 645.574 687.034 646.426 686.409C647.264 685.763 648.287 685.307 649.496 685.04C651.156 684.673 652.71 684.629 654.16 684.907C655.619 685.16 656.939 685.685 658.119 686.484C659.286 687.262 660.297 688.27 661.154 689.508L667.616 698.853L664.949 699.442L662.928 696.815C662.981 697.287 662.949 697.755 662.832 698.218C662.725 698.656 662.519 699.07 662.215 699.459C661.896 699.829 661.472 700.164 660.943 700.465C660.437 700.761 659.781 700.998 658.975 701.176ZM657.967 698.948C658.796 698.764 659.446 698.459 659.917 698.033C660.397 697.582 660.702 697.054 660.831 696.45C660.946 695.826 660.908 695.179 660.717 694.507C660.549 693.831 660.231 693.153 659.762 692.474L659.699 692.384L655.219 693.374C654.057 693.631 653.204 693.957 652.658 694.354C652.099 694.731 651.81 695.163 651.792 695.651C651.76 696.118 651.924 696.611 652.283 697.13C652.656 697.67 653.122 698.107 653.683 698.444C654.267 698.775 654.92 698.988 655.641 699.082C656.385 699.17 657.161 699.126 657.967 698.948ZM672.237 697.832L661.797 682.736L664.5 682.139L666.702 684.967C666.635 684.199 666.744 683.507 667.029 682.892C667.338 682.271 667.841 681.734 668.539 681.281C669.26 680.822 670.189 680.467 671.327 680.216L673.15 682.851L672.048 683.095C671.289 683.263 670.628 683.512 670.065 683.844C669.488 684.156 669.058 684.561 668.775 685.061C668.516 685.556 668.46 686.167 668.608 686.894C668.765 687.595 669.175 688.426 669.838 689.384L675.224 697.172L672.237 697.832ZM691.478 693.994C690.031 694.314 688.678 694.371 687.416 694.167C686.14 693.942 685.023 693.533 684.066 692.939C683.095 692.325 682.319 691.598 681.739 690.76C681.035 689.741 680.749 688.815 680.882 687.98C681.025 687.119 681.541 686.384 682.431 685.773C683.33 685.137 684.562 684.646 686.126 684.3L690.856 683.255C690.207 682.317 689.49 681.577 688.707 681.037C687.933 680.471 687.104 680.102 686.219 679.929C685.358 679.751 684.441 679.769 683.47 679.984C682.332 680.236 681.514 680.693 681.015 681.355C680.517 682.018 680.498 682.839 680.957 683.82L677.899 684.495C677.295 683.386 677.101 682.393 677.315 681.517C677.539 680.616 678.077 679.852 678.928 679.227C679.766 678.581 680.79 678.125 681.999 677.858C683.658 677.491 685.213 677.447 686.662 677.725C688.122 677.978 689.442 678.503 690.622 679.302C691.789 680.08 692.8 681.088 693.656 682.326L700.119 691.671L697.452 692.26L695.43 689.633C695.483 690.105 695.451 690.573 695.334 691.036C695.227 691.474 695.022 691.888 694.717 692.277C694.399 692.647 693.975 692.982 693.445 693.283C692.939 693.579 692.284 693.816 691.478 693.994ZM690.469 691.766C691.299 691.582 691.949 691.277 692.419 690.851C692.9 690.4 693.204 689.872 693.333 689.268C693.448 688.644 693.41 687.997 693.219 687.325C693.052 686.649 692.734 685.971 692.264 685.292L692.202 685.202L687.722 686.192C686.56 686.449 685.707 686.775 685.161 687.172C684.602 687.549 684.313 687.981 684.295 688.469C684.263 688.936 684.426 689.429 684.785 689.948C685.158 690.488 685.625 690.925 686.186 691.262C686.77 691.593 687.423 691.806 688.143 691.9C688.888 691.988 689.663 691.944 690.469 691.766ZM713.059 689.225C711.376 689.597 709.631 689.603 707.824 689.243C706.041 688.877 704.363 688.189 702.79 687.179C701.203 686.148 699.871 684.854 698.793 683.297C697.689 681.699 697.108 680.228 697.052 678.882C696.996 677.536 697.404 676.387 698.276 675.435C699.158 674.457 700.44 673.783 702.123 673.411C704.257 672.939 706.359 673.016 708.43 673.64C710.488 674.244 712.245 675.283 713.701 676.757L710.643 677.433C709.757 676.546 708.672 675.946 707.389 675.631C706.105 675.316 704.835 675.298 703.579 675.575C702.559 675.8 701.763 676.23 701.19 676.863C700.603 677.476 700.345 678.269 700.418 679.243C700.49 680.217 700.961 681.333 701.831 682.591C702.48 683.529 703.214 684.334 704.033 685.005C704.838 685.656 705.667 686.163 706.52 686.527C707.373 686.891 708.233 687.127 709.1 687.234C709.977 687.317 710.795 687.274 711.553 687.107C712.407 686.918 713.101 686.638 713.637 686.266C714.159 685.875 714.498 685.397 714.654 684.833C714.811 684.269 714.758 683.659 714.496 683.004L717.554 682.328C718.224 683.929 718.167 685.369 717.384 686.647C716.611 687.9 715.169 688.759 713.059 689.225ZM731.642 684.705C730.576 684.941 729.554 685.005 728.579 684.898C727.603 684.792 726.674 684.456 725.792 683.891C724.919 683.301 724.09 682.437 723.303 681.299L717.482 672.883L714.353 673.574L712.882 671.448L716.012 670.756L713.876 667.016L716.471 666.442L718.998 670.096L724.19 668.949L725.661 671.076L720.469 672.223L726.289 680.639C726.938 681.578 727.606 682.167 728.291 682.407C728.962 682.627 729.867 682.611 731.004 682.36L732.925 681.935L734.416 684.092L731.642 684.705ZM746.147 681.914C744.464 682.286 742.743 682.286 740.983 681.916C739.248 681.54 737.605 680.844 736.055 679.828C734.492 678.792 733.165 677.486 732.074 675.908C730.969 674.311 730.365 672.844 730.262 671.509C730.182 670.169 730.566 669.025 731.414 668.078C732.286 667.126 733.575 666.461 735.282 666.084C737.036 665.696 738.746 665.698 740.41 666.09C742.099 666.477 743.636 667.138 745.021 668.075C746.417 668.987 747.557 670.082 748.441 671.359C748.579 671.559 748.724 671.769 748.876 671.988C749.027 672.208 749.188 672.46 749.358 672.745L734.708 675.982L733.361 674.035L745.131 671.435C744.107 670.073 742.816 669.115 741.259 668.561C739.724 668.003 738.199 667.891 736.682 668.226C735.662 668.451 734.852 668.861 734.251 669.454C733.66 670.022 733.366 670.743 733.369 671.617C733.359 672.471 733.74 673.457 734.513 674.575L735.093 675.414C735.95 676.652 736.928 677.632 738.03 678.356C739.155 679.074 740.289 679.548 741.433 679.779C742.6 680.005 743.681 680.007 744.677 679.787C745.933 679.51 746.806 679.052 747.294 678.415C747.792 677.752 747.943 676.982 747.746 676.105L750.698 675.453C751.034 676.414 751.096 677.333 750.882 678.209C750.668 679.085 750.172 679.851 749.396 680.506C748.629 681.136 747.546 681.605 746.147 681.914ZM758.25 678.825L747.811 663.73L750.513 663.132L752.715 665.961C752.649 665.193 752.758 664.501 753.043 663.886C753.352 663.265 753.855 662.728 754.552 662.275C755.274 661.816 756.203 661.461 757.341 661.209L759.164 663.845L758.061 664.089C757.303 664.256 756.642 664.506 756.079 664.838C755.502 665.149 755.072 665.555 754.789 666.055C754.53 666.55 754.474 667.16 754.622 667.887C754.779 668.589 755.189 669.419 755.852 670.378L761.237 678.165L758.25 678.825ZM781.034 673.791L766.535 652.825L773.86 651.206C776.776 650.562 779.467 650.462 781.933 650.907C784.41 651.326 786.644 652.225 788.636 653.604C790.637 654.957 792.397 656.732 793.916 658.928C795.408 661.085 796.23 663.044 796.382 664.806C796.559 666.562 795.988 668.069 794.672 669.327C793.379 670.58 791.275 671.528 788.359 672.172L781.034 673.791ZM782.571 671.034L786.838 670.091C789.256 669.557 790.948 668.803 791.915 667.83C792.868 666.837 793.224 665.653 792.985 664.279C792.731 662.885 792.01 661.329 790.823 659.612C789.608 657.855 788.257 656.415 786.771 655.293C785.284 654.172 783.595 653.428 781.703 653.064C779.812 652.699 777.657 652.784 775.239 653.318L770.972 654.261L782.571 671.034ZM813.444 667.044C811.761 667.415 810.04 667.416 808.28 667.045C806.545 666.669 804.902 665.973 803.352 664.957C801.789 663.922 800.462 662.615 799.371 661.038C798.266 659.44 797.662 657.974 797.559 656.639C797.479 655.298 797.863 654.155 798.711 653.207C799.583 652.255 800.872 651.591 802.579 651.213C804.333 650.826 806.043 650.828 807.707 651.22C809.396 651.606 810.933 652.268 812.318 653.205C813.714 654.116 814.854 655.211 815.738 656.489C815.876 656.689 816.021 656.898 816.172 657.118C816.324 657.338 816.485 657.59 816.655 657.875L802.005 661.112L800.658 659.165L812.428 656.564C811.404 655.202 810.113 654.244 808.555 653.691C807.021 653.132 805.496 653.02 803.978 653.356C802.959 653.581 802.149 653.99 801.548 654.583C800.957 655.151 800.663 655.872 800.666 656.746C800.656 657.6 801.037 658.586 801.81 659.705L802.39 660.543C803.246 661.781 804.225 662.762 805.327 663.485C806.452 664.204 807.586 664.678 808.73 664.909C809.897 665.134 810.978 665.137 811.974 664.917C813.23 664.639 814.103 664.182 814.591 663.545C815.089 662.882 815.24 662.112 815.043 661.235L817.995 660.583C818.331 661.544 818.393 662.463 818.179 663.339C817.965 664.215 817.469 664.98 816.693 665.635C815.926 666.265 814.843 666.735 813.444 667.044ZM831.998 662.53C830.931 662.765 829.91 662.83 828.934 662.723C827.958 662.616 827.029 662.281 826.147 661.716C825.275 661.126 824.445 660.262 823.658 659.124L817.837 650.708L814.708 651.399L813.238 649.273L816.367 648.581L814.231 644.841L816.827 644.267L819.354 647.921L824.545 646.774L826.016 648.9L820.824 650.048L826.645 658.464C827.294 659.403 827.961 659.992 828.646 660.232C829.317 660.452 830.222 660.436 831.36 660.184L833.28 659.76L834.771 661.917L831.998 662.53ZM844.962 660.079C843.516 660.399 842.162 660.456 840.9 660.252C839.624 660.027 838.508 659.618 837.55 659.024C836.579 658.41 835.803 657.683 835.223 656.845C834.519 655.826 834.234 654.9 834.367 654.065C834.51 653.204 835.026 652.469 835.915 651.858C836.814 651.222 838.046 650.731 839.611 650.385L844.34 649.34C843.691 648.402 842.975 647.662 842.191 647.122C841.417 646.556 840.588 646.187 839.703 646.014C838.842 645.836 837.926 645.854 836.954 646.069C835.816 646.321 834.998 646.778 834.5 647.44C834.001 648.103 833.982 648.924 834.441 649.905L831.383 650.58C830.78 649.471 830.585 648.478 830.799 647.602C831.023 646.701 831.561 645.937 832.413 645.312C833.251 644.666 834.274 644.21 835.483 643.943C837.143 643.576 838.697 643.532 840.147 643.81C841.606 644.063 842.926 644.588 844.106 645.386C845.273 646.165 846.284 647.173 847.14 648.411L853.603 657.755L850.936 658.345L848.915 655.718C848.968 656.19 848.936 656.658 848.819 657.121C848.712 657.559 848.506 657.972 848.201 658.362C847.883 658.732 847.459 659.067 846.93 659.368C846.424 659.664 845.768 659.901 844.962 660.079ZM843.953 657.851C844.783 657.667 845.433 657.362 845.904 656.936C846.384 656.485 846.689 655.957 846.817 655.353C846.933 654.729 846.895 654.082 846.704 653.41C846.536 652.734 846.218 652.056 845.748 651.377L845.686 651.287L841.206 652.277C840.044 652.534 839.191 652.86 838.645 653.257C838.086 653.634 837.797 654.066 837.779 654.553C837.747 655.021 837.911 655.514 838.27 656.033C838.643 656.573 839.109 657.01 839.67 657.347C840.254 657.678 840.907 657.891 841.628 657.985C842.372 658.073 843.147 658.029 843.953 657.851ZM858.508 656.672L848.069 641.576L851.055 640.916L861.495 656.012L858.508 656.672ZM847.346 638.041C846.753 638.172 846.145 638.122 845.521 637.892C844.907 637.636 844.427 637.259 844.082 636.76C843.737 636.26 843.65 635.819 843.822 635.436C844.004 635.027 844.392 634.758 844.984 634.627C845.553 634.501 846.15 634.553 846.774 634.784C847.384 634.994 847.862 635.349 848.207 635.848C848.552 636.347 848.64 636.811 848.472 637.24C848.29 637.648 847.915 637.915 847.346 638.041ZM866.766 654.847L851.852 633.282L854.839 632.622L869.753 654.187L866.766 654.847ZM881.688 651.964C880.194 652.294 878.746 652.372 877.341 652.199C875.961 652.021 874.683 651.636 873.509 651.044C872.344 650.426 871.338 649.624 870.492 648.637L873.55 647.961C874.027 648.454 874.608 648.879 875.291 649.234C875.974 649.59 876.732 649.836 877.565 649.974C878.409 650.087 879.304 650.039 880.253 649.83C881.082 649.646 881.701 649.394 882.108 649.074C882.501 648.734 882.704 648.356 882.716 647.939C882.752 647.516 882.625 647.095 882.335 646.676C881.907 646.057 881.405 645.627 880.828 645.386C880.275 645.14 879.605 645.001 878.817 644.968C878.015 644.914 877.092 644.923 876.047 644.993C875.182 645.046 874.301 645.056 873.404 645.024C872.508 644.992 871.652 644.882 870.839 644.693C870.011 644.485 869.254 644.18 868.567 643.78C867.904 643.374 867.331 642.821 866.847 642.122C866.254 641.264 865.99 640.447 866.055 639.673C866.108 638.879 866.488 638.185 867.198 637.591C867.931 636.991 868.95 636.548 870.253 636.259C872.174 635.835 873.996 635.881 875.719 636.398C877.443 636.915 878.923 637.889 880.158 639.319L877.207 639.971C876.563 639.239 875.765 638.736 874.811 638.464C873.867 638.166 872.826 638.142 871.689 638.394C870.574 638.64 869.852 639.018 869.522 639.529C869.215 640.034 869.276 640.596 869.704 641.215C869.98 641.614 870.383 641.94 870.912 642.191C871.451 642.417 872.105 642.572 872.873 642.655C873.665 642.734 874.571 642.741 875.593 642.676C876.902 642.594 878.147 642.595 879.326 642.68C880.505 642.765 881.598 643.041 882.604 643.509C883.621 643.952 884.503 644.713 885.248 645.791C885.897 646.729 886.179 647.611 886.093 648.435C886.031 649.255 885.629 649.977 884.886 650.601C884.129 651.206 883.063 651.66 881.688 651.964Z"
								fill="#23F784"
								style="fill:#23F784;fill:color(display-p3 0.1373 0.9686 0.5176);fill-opacity:1;"
							/>
							<path
								d="M552.892 726.123C554.266 726.663 555.673 726.352 556.035 725.429L561.94 710.39C562.302 709.468 561.482 708.282 560.109 707.743C558.736 707.204 557.328 707.515 556.966 708.437L551.717 721.805L531.822 713.993C530.449 713.454 529.042 713.765 528.68 714.688C528.317 715.611 529.137 716.796 530.51 717.335L552.892 726.123ZM516.006 670.165L513.783 670.656L551.326 724.943L553.548 724.452L555.771 723.961L518.228 669.674L516.006 670.165Z"
								fill="#23F784"
								style="fill:#23F784;fill:color(display-p3 0.1373 0.9686 0.5176);fill-opacity:1;"
							/>
						</g>
						<g clip-path="url(#clip7_713_4791)">
							<rect
								width="461.784"
								height="109.248"
								rx="9.10403"
								transform="matrix(0.976446 -0.215763 0.568787 0.822485 533.369 774.23)"
								fill="#00200F"
								style="fill:#00200F;fill:color(display-p3 0.0000 0.1250 0.0586);fill-opacity:1;"
							/>
							<path
								d="M670.259 806.17L664.934 783.177L668.099 782.478L691.736 801.424L688.571 802.124L668.673 785.976L673.388 805.479L670.259 806.17ZM670.726 799.852L670.171 797.626L681.443 795.136L683.705 796.984L670.726 799.852ZM707.176 806.023C705.564 806.38 704.005 806.517 702.5 806.435C701.033 806.368 699.707 806.051 698.522 805.484C697.338 804.917 696.38 804.104 695.648 803.046C695.33 802.587 695.098 802.074 694.953 801.508C694.831 800.936 694.87 800.341 695.07 799.721C695.294 799.096 695.777 798.471 696.52 797.847L699.287 798.409C698.334 799.126 697.862 799.806 697.869 800.449C697.89 801.112 698.066 801.683 698.398 802.162C698.853 802.821 699.458 803.321 700.213 803.66C700.967 804 701.823 804.191 702.781 804.232C703.739 804.274 704.727 804.182 705.747 803.957C706.766 803.732 707.56 803.418 708.129 803.016C708.698 802.614 709.033 802.149 709.132 801.62C709.231 801.092 709.074 800.528 708.659 799.929C708.176 799.23 707.46 798.71 706.513 798.366C705.579 798.043 704.219 798.033 702.433 798.336C700.979 798.565 699.73 798.714 698.685 798.784C697.64 798.854 696.747 798.867 696.007 798.823C695.252 798.76 694.579 798.656 693.987 798.51C693.418 798.36 692.878 798.191 692.366 798.005L691.89 797.316L693.351 793.679L696.485 793.884L694.793 797.365L694.531 796.215C694.902 796.317 695.254 796.412 695.588 796.499C695.922 796.586 696.325 796.635 696.797 796.646C697.269 796.657 697.888 796.624 698.654 796.546C699.444 796.464 700.46 796.332 701.7 796.15C703.405 795.888 704.875 795.84 706.109 796.004C707.367 796.164 708.43 796.516 709.299 797.06C710.191 797.6 710.941 798.309 711.548 799.187C712.142 800.046 712.417 800.918 712.373 801.802C712.366 802.701 711.955 803.529 711.138 804.285C710.322 805.041 709.001 805.62 707.176 806.023ZM699.062 794.35C697.569 794.68 696.123 794.723 694.725 794.48C693.35 794.231 692.114 793.768 691.017 793.089C689.905 792.391 689.004 791.543 688.314 790.545C687.623 789.546 687.275 788.587 687.268 787.668C687.284 786.744 687.648 785.927 688.36 785.217C689.058 784.487 690.153 783.957 691.647 783.627C693.14 783.297 694.581 783.267 695.969 783.536C697.344 783.784 698.58 784.248 699.677 784.926C700.775 785.604 701.669 786.443 702.359 787.441C703.05 788.439 703.406 789.408 703.427 790.347C703.434 791.266 703.081 792.081 702.37 792.791C701.658 793.5 700.556 794.02 699.062 794.35ZM697.633 792.283C698.913 792.001 699.727 791.498 700.075 790.777C700.424 790.055 700.225 789.156 699.479 788.077C698.747 787.019 697.821 786.292 696.699 785.895C695.578 785.498 694.377 785.441 693.097 785.724C691.84 786.002 691.014 786.506 690.619 787.238C690.247 787.965 690.427 788.858 691.159 789.916C691.904 790.994 692.85 791.729 693.995 792.121C695.14 792.512 696.353 792.566 697.633 792.283ZM696.282 785.469L693.922 783.539L701.247 781.92L702.552 783.807L696.282 785.469ZM722.535 795.033C720.852 795.405 719.13 795.406 717.371 795.035C715.635 794.659 713.992 793.963 712.443 792.947C710.879 791.912 709.552 790.605 708.461 789.028C707.357 787.43 706.752 785.964 706.649 784.629C706.569 783.288 706.953 782.144 707.801 781.197C708.673 780.245 709.962 779.58 711.669 779.203C713.423 778.816 715.133 778.818 716.798 779.209C718.486 779.596 720.023 780.258 721.409 781.194C722.804 782.106 723.944 783.201 724.828 784.479C724.966 784.678 725.111 784.888 725.263 785.108C725.415 785.327 725.575 785.58 725.745 785.864L711.095 789.102L709.749 787.155L721.518 784.554C720.495 783.192 719.204 782.234 717.646 781.681C716.112 781.122 714.586 781.01 713.069 781.345C712.049 781.571 711.239 781.98 710.638 782.573C710.047 783.141 709.753 783.862 709.757 784.736C709.746 785.59 710.127 786.576 710.901 787.694L711.481 788.533C712.337 789.771 713.316 790.752 714.417 791.475C715.542 792.193 716.677 792.668 717.82 792.899C718.987 793.124 720.068 793.127 721.064 792.907C722.32 792.629 723.193 792.172 723.681 791.534C724.179 790.872 724.33 790.102 724.133 789.225L727.085 788.572C727.422 789.534 727.483 790.452 727.269 791.328C727.055 792.204 726.56 792.97 725.783 793.625C725.016 794.255 723.933 794.724 722.535 795.033ZM734.638 791.945L724.198 776.849L726.901 776.252L728.866 778.856C728.786 777.792 729.088 776.885 729.772 776.135C730.465 775.361 731.488 774.824 732.839 774.525C734.238 774.216 735.613 774.189 736.963 774.443C738.3 774.677 739.585 775.21 740.816 776.043C742.034 776.856 743.147 777.991 744.155 779.448L750.39 788.464L747.403 789.124L741.355 780.378C740.305 778.86 739.115 777.811 737.785 777.231C736.478 776.645 735.101 776.512 733.655 776.831C732.659 777.051 731.915 777.457 731.423 778.049C730.917 778.622 730.696 779.349 730.761 780.233C730.835 781.091 731.266 782.089 732.053 783.228L737.624 791.285L734.638 791.945ZM762.096 785.877C761.03 786.113 760.008 786.177 759.033 786.071C758.057 785.964 757.128 785.628 756.246 785.064C755.373 784.474 754.544 783.61 753.757 782.472L747.936 774.055L744.807 774.747L743.336 772.62L746.466 771.929L744.33 768.188L746.925 767.615L749.452 771.269L754.644 770.121L756.115 772.248L750.923 773.395L756.743 781.812C757.392 782.75 758.06 783.339 758.745 783.579C759.416 783.799 760.321 783.783 761.458 783.532L763.379 783.108L764.87 785.264L762.096 785.877ZM778.604 782.23L764.104 761.263L772.852 759.331C774.606 758.943 776.218 758.863 777.687 759.091C779.166 759.293 780.473 759.741 781.608 760.434C782.73 761.107 783.636 761.943 784.326 762.941C785.072 764.019 785.409 764.981 785.337 765.825C785.289 766.665 784.945 767.374 784.307 767.952C783.692 768.525 782.915 768.962 781.974 769.262L782.265 768.852C783.345 768.636 784.495 768.659 785.713 768.919C786.932 769.179 788.071 769.641 789.131 770.304C790.215 770.963 791.088 771.771 791.751 772.729C792.483 773.788 792.844 774.824 792.836 775.839C792.813 776.834 792.377 777.724 791.527 778.511C790.687 779.272 789.39 779.846 787.635 780.234L778.604 782.23ZM780.141 779.473L785.865 778.208C787.549 777.836 788.625 777.218 789.093 776.355C789.572 775.467 789.397 774.424 788.569 773.225C787.754 772.047 786.619 771.216 785.164 770.732C783.718 770.223 782.154 770.154 780.471 770.526L774.817 771.775L780.141 779.473ZM773.43 769.769L778.977 768.543C780.589 768.187 781.589 767.597 781.976 766.775C782.388 765.948 782.214 764.985 781.454 763.886C780.723 762.828 779.709 762.074 778.414 761.623C777.142 761.168 775.665 761.126 773.982 761.498L768.541 762.7L773.43 769.769ZM807.958 776.158C806.275 776.529 804.554 776.53 802.794 776.159C801.058 775.783 799.416 775.087 797.866 774.071C796.303 773.036 794.976 771.729 793.885 770.152C792.78 768.554 792.176 767.088 792.072 765.753C791.992 764.412 792.377 763.269 793.225 762.321C794.097 761.369 795.386 760.704 797.093 760.327C798.847 759.94 800.556 759.942 802.221 760.334C803.909 760.72 805.446 761.382 806.832 762.319C808.228 763.23 809.367 764.325 810.251 765.603C810.389 765.803 810.534 766.012 810.686 766.232C810.838 766.452 810.999 766.704 811.168 766.989L796.518 770.226L795.172 768.279L806.942 765.678C805.918 764.316 804.627 763.358 803.069 762.805C801.535 762.246 800.009 762.134 798.492 762.47C797.473 762.695 796.663 763.104 796.062 763.697C795.471 764.265 795.177 764.986 795.18 765.86C795.169 766.714 795.551 767.7 796.324 768.819L796.904 769.657C797.76 770.895 798.739 771.876 799.84 772.599C800.966 773.318 802.1 773.792 803.243 774.023C804.41 774.248 805.492 774.251 806.487 774.031C807.744 773.753 808.616 773.296 809.105 772.659C809.603 771.996 809.754 771.226 809.557 770.349L812.508 769.697C812.845 770.658 812.907 771.577 812.693 772.453C812.478 773.329 811.983 774.094 811.206 774.749C810.439 775.379 809.357 775.848 807.958 776.158ZM820.061 773.069L805.148 751.504L808.135 750.844L814.369 759.859C814.34 758.83 814.68 757.937 815.388 757.182C816.119 756.422 817.125 755.901 818.405 755.618C819.78 755.314 821.143 755.289 822.493 755.543C823.83 755.777 825.103 756.313 826.311 757.151C827.519 757.989 828.627 759.137 829.635 760.595L835.849 769.58L832.898 770.232L826.87 761.516C825.821 759.999 824.654 758.945 823.371 758.353C822.074 757.742 820.702 757.596 819.256 757.916C818.237 758.141 817.457 758.555 816.918 759.158C816.402 759.755 816.176 760.496 816.24 761.379C816.305 762.263 816.73 763.274 817.518 764.412L823.048 772.409L820.061 773.069ZM846.594 767.62C845.148 767.94 843.794 767.997 842.532 767.793C841.256 767.568 840.14 767.159 839.182 766.565C838.211 765.951 837.436 765.224 836.856 764.386C836.151 763.367 835.866 762.441 835.999 761.606C836.142 760.745 836.658 760.01 837.547 759.399C838.446 758.763 839.678 758.272 841.243 757.926L845.972 756.881C845.323 755.943 844.607 755.203 843.823 754.663C843.049 754.097 842.22 753.728 841.336 753.555C840.475 753.377 839.558 753.395 838.586 753.61C837.448 753.862 836.63 754.319 836.132 754.981C835.634 755.644 835.614 756.465 836.074 757.446L833.016 758.121C832.412 757.012 832.217 756.019 832.431 755.143C832.655 754.242 833.193 753.478 834.045 752.853C834.883 752.207 835.907 751.751 837.116 751.484C838.775 751.117 840.329 751.073 841.779 751.351C843.238 751.604 844.558 752.129 845.739 752.927C846.905 753.706 847.917 754.714 848.773 755.952L855.235 765.296L852.568 765.886L850.547 763.259C850.6 763.731 850.568 764.199 850.451 764.662C850.344 765.1 850.138 765.513 849.834 765.903C849.515 766.273 849.091 766.608 848.562 766.909C848.056 767.205 847.4 767.442 846.594 767.62ZM845.586 765.392C846.415 765.208 847.066 764.903 847.536 764.477C848.016 764.026 848.321 763.498 848.45 762.894C848.565 762.27 848.527 761.623 848.336 760.951C848.169 760.275 847.85 759.597 847.381 758.918L847.319 758.828L842.838 759.818C841.677 760.075 840.823 760.401 840.278 760.798C839.718 761.175 839.43 761.607 839.411 762.094C839.379 762.562 839.543 763.055 839.902 763.574C840.275 764.114 840.742 764.551 841.302 764.888C841.887 765.219 842.539 765.432 843.26 765.526C844.004 765.614 844.78 765.57 845.586 765.392ZM864.352 763.282L847.121 749.687L850.25 748.996L864.417 760.471L861.095 746.599L864.153 745.923L867.801 762.52L864.352 763.282ZM878.232 760.215L867.793 745.119L870.78 744.459L881.219 759.555L878.232 760.215ZM867.07 741.584C866.477 741.715 865.869 741.666 865.245 741.435C864.631 741.18 864.151 740.802 863.806 740.303C863.461 739.804 863.374 739.363 863.546 738.979C863.728 738.571 864.116 738.301 864.708 738.17C865.277 738.044 865.874 738.097 866.498 738.327C867.108 738.538 867.586 738.892 867.931 739.392C868.276 739.891 868.364 740.355 868.196 740.783C868.014 741.192 867.639 741.459 867.07 741.584ZM894.739 756.982C893.08 757.348 891.365 757.359 889.596 757.013C887.813 756.648 886.134 755.96 884.561 754.949C882.974 753.919 881.635 752.615 880.544 751.037C879.426 749.42 878.838 747.938 878.782 746.593C878.736 745.222 879.156 744.07 880.041 743.138C880.937 742.18 882.214 741.518 883.874 741.152C885.58 740.774 887.314 740.771 889.073 741.142C890.842 741.488 892.521 742.176 894.108 743.206C895.705 744.211 897.056 745.513 898.16 747.11C899.265 748.708 899.841 750.192 899.887 751.563C899.919 752.914 899.5 754.065 898.628 755.018C897.742 755.95 896.446 756.605 894.739 756.982ZM893.283 754.817C894.303 754.592 895.106 754.173 895.693 753.56C896.266 752.927 896.529 752.121 896.48 751.142C896.432 750.162 895.972 749.044 895.102 747.786C894.219 746.508 893.214 745.51 892.089 744.792C890.974 744.048 889.832 743.564 888.665 743.338C887.508 743.088 886.408 743.078 885.365 743.308C884.369 743.528 883.573 743.957 882.976 744.596C882.389 745.209 882.12 746.005 882.168 746.984C882.227 747.938 882.698 749.054 883.581 750.332C884.451 751.59 885.444 752.59 886.559 753.334C887.698 754.072 888.846 754.566 890.004 754.817C891.171 755.042 892.264 755.043 893.283 754.817ZM907.568 753.733L897.129 738.637L899.831 738.04L902.033 740.868C901.966 740.1 902.075 739.408 902.36 738.793C902.669 738.172 903.172 737.635 903.87 737.182C904.591 736.723 905.521 736.368 906.659 736.117L908.481 738.753L907.379 738.996C906.62 739.164 905.959 739.413 905.396 739.745C904.819 740.057 904.389 740.462 904.107 740.962C903.847 741.457 903.792 742.068 903.939 742.795C904.096 743.497 904.507 744.327 905.169 745.285L910.555 753.073L907.568 753.733Z"
								fill="#23F784"
								style="fill:#23F784;fill:color(display-p3 0.1373 0.9686 0.5176);fill-opacity:1;"
							/>
							<path
								d="M617.62 819.722C618.993 820.262 620.4 819.951 620.763 819.028L626.667 803.989C627.03 803.067 626.21 801.881 624.837 801.342C623.463 800.803 622.056 801.114 621.694 802.036L616.445 815.404L596.55 807.592C595.177 807.053 593.769 807.364 593.407 808.287C593.045 809.21 593.864 810.395 595.238 810.934L617.62 819.722ZM580.733 763.764L578.511 764.255L616.053 818.542L618.276 818.051L620.498 817.56L582.956 763.273L580.733 763.764Z"
								fill="#23F784"
								style="fill:#23F784;fill:color(display-p3 0.1373 0.9686 0.5176);fill-opacity:1;"
							/>
						</g>
						<g clip-path="url(#clip8_713_4791)">
							<rect
								width="461.784"
								height="109.248"
								rx="9.10403"
								transform="matrix(0.976446 -0.215763 0.568787 0.822485 598.098 867.829)"
								fill="#00200F"
								style="fill:#00200F;fill:color(display-p3 0.0000 0.1250 0.0586);fill-opacity:1;"
							/>
						</g>
					</g>
				</g>
				<defs>
					<filter
						id="filter0_d_713_4791"
						x="0.928757"
						y="-21.9672"
						width="1254.29"
						height="1132.83"
						filterUnits="userSpaceOnUse"
						color-interpolation-filters="sRGB"
					>
						<feFlood flood-opacity="0" result="BackgroundImageFix" />
						<feColorMatrix
							in="SourceAlpha"
							type="matrix"
							values="0 0 0 0 0 0 0 0 0 0 0 0 0 0 0 0 0 0 127 0"
							result="hardAlpha"
						/>
						<feOffset dy="9.10403" />
						<feGaussianBlur stdDeviation="72.0356" />
						<feColorMatrix
							type="matrix"
							values="0 0 0 0 0.137255 0 0 0 0 0.968627 0 0 0 0 0.517647 0 0 0 0.67 0"
						/>
						<feBlend mode="normal" in2="BackgroundImageFix" result="effect1_dropShadow_713_4791" />
						<feBlend
							mode="normal"
							in="SourceGraphic"
							in2="effect1_dropShadow_713_4791"
							result="shape"
						/>
					</filter>
					<clipPath id="clip0_713_4791">
						<rect
							width="461.784"
							height="905.851"
							rx="36.4161"
							transform="matrix(0.976446 -0.215763 0.568787 0.822485 145 212.636)"
							fill="white"
							style="fill:white;fill-opacity:1;"
						/>
					</clipPath>
					<clipPath id="clip1_713_4791">
						<rect
							width="461.784"
							height="109.248"
							rx="9.10403"
							transform="matrix(0.976446 -0.215763 0.568787 0.822485 145 212.636)"
							fill="white"
							style="fill:white;fill-opacity:1;"
						/>
					</clipPath>
					<clipPath id="clip2_713_4791">
						<rect
							width="461.784"
							height="109.248"
							rx="9.10403"
							transform="matrix(0.976446 -0.215763 0.568787 0.822485 209.729 306.235)"
							fill="white"
							style="fill:white;fill-opacity:1;"
						/>
					</clipPath>
					<clipPath id="clip3_713_4791">
						<rect
							width="461.784"
							height="109.248"
							rx="9.10403"
							transform="matrix(0.976446 -0.215763 0.568787 0.822485 274.456 399.834)"
							fill="white"
							style="fill:white;fill-opacity:1;"
						/>
					</clipPath>
					<clipPath id="clip4_713_4791">
						<rect
							width="461.784"
							height="109.248"
							rx="9.10403"
							transform="matrix(0.976446 -0.215763 0.568787 0.822485 339.185 493.433)"
							fill="white"
							style="fill:white;fill-opacity:1;"
						/>
					</clipPath>
					<clipPath id="clip5_713_4791">
						<rect
							width="461.784"
							height="109.248"
							rx="9.10403"
							transform="matrix(0.976446 -0.215763 0.568787 0.822485 403.913 587.032)"
							fill="white"
							style="fill:white;fill-opacity:1;"
						/>
					</clipPath>
					<clipPath id="clip6_713_4791">
						<rect
							width="461.784"
							height="109.248"
							rx="9.10403"
							transform="matrix(0.976446 -0.215763 0.568787 0.822485 468.641 680.631)"
							fill="white"
							style="fill:white;fill-opacity:1;"
						/>
					</clipPath>
					<clipPath id="clip7_713_4791">
						<rect
							width="461.784"
							height="109.248"
							rx="9.10403"
							transform="matrix(0.976446 -0.215763 0.568787 0.822485 533.369 774.23)"
							fill="white"
							style="fill:white;fill-opacity:1;"
						/>
					</clipPath>
					<clipPath id="clip8_713_4791">
						<rect
							width="461.784"
							height="109.248"
							rx="9.10403"
							transform="matrix(0.976446 -0.215763 0.568787 0.822485 598.098 867.829)"
							fill="white"
							style="fill:white;fill-opacity:1;"
						/>
					</clipPath>
				</defs>
			</svg>