<svg width="39" height="38" viewBox="0 0 39 38" fill="none" xmlns="http://www.w3.org/2000/svg">
<g clip-path="url(#clip0_53_10425)">
<path d="M31.3998 17.0731C32.1848 17.045 32.9627 17.2296 33.6514 17.6072C34.3401 17.9848 34.9139 18.5416 35.3123 19.2185C36.077 20.4946 36.2971 22.0241 35.9218 23.4618L35.7065 24.2883C34.8944 27.404 33.1512 30.1979 30.7095 32.2968C29.7516 33.1154 28.6781 33.9783 27.4114 34.7098L27.3671 34.7367C26.7306 35.1041 25.9674 35.5458 25.1536 35.9337C23.2694 36.8869 21.2348 37.5123 19.1401 37.7815C17.7879 37.9572 16.4231 38.0269 15.0598 37.9905H15.0313C12.1197 37.885 9.31903 36.847 7.04184 35.0296L7.02284 35.0138L7.00384 34.998C4.7156 33.1152 3.15746 30.4918 2.59901 27.5816C2.1976 25.6117 2.14295 23.5869 2.43751 21.5982C2.86665 18.6883 3.81139 15.8782 5.22734 13.3C6.31039 11.2334 7.60056 9.28225 9.07801 7.47648C10.6843 5.51497 12.5859 3.81526 14.7147 2.43832C16.4321 1.32051 18.351 0.548219 20.364 0.164649H20.3703L20.3751 0.161482C23.632 -0.446518 26.3015 0.753649 28.3298 2.15648C29.8607 3.19993 31.1532 4.55604 32.1218 6.1354L32.1598 6.19873L32.1963 6.26523C33.2654 8.20239 33.5531 10.4751 33.0006 12.6176C32.6222 14.1534 32.0854 15.6481 31.3998 17.0731Z" fill="#ECF2FF" style="fill:#ECF2FF;fill:color(display-p3 0.9250 0.9475 1.0000);fill-opacity:1;"/>
<path d="M30.5305 20.8445C30.642 20.6811 30.7926 20.5482 30.9686 20.4579C31.1446 20.3677 31.3404 20.3229 31.5382 20.3278C31.7359 20.3327 31.9293 20.387 32.1007 20.4859C32.272 20.5847 32.4159 20.7249 32.5192 20.8936C32.8343 21.4193 32.9245 22.0494 32.7709 22.64L32.554 23.4665C31.9093 25.9388 30.5263 28.1559 28.5893 29.822C27.6837 30.5979 26.7875 31.3088 25.7805 31.8899C25.1044 32.2809 24.4236 32.6752 23.7174 33.0093C22.1534 33.8066 20.4634 34.3278 18.722 34.5499C17.5375 34.7051 16.3426 34.7665 15.1484 34.7335C12.9344 34.6532 10.8048 33.8639 9.07317 32.482C7.36685 31.0782 6.20656 29.1206 5.79408 26.9499C5.46471 25.3446 5.41916 23.6941 5.6595 22.0732C6.03378 19.536 6.8596 17.0864 8.09783 14.8405C9.08181 12.9589 10.2553 11.1827 11.6002 9.53953C12.9933 7.83796 14.6428 6.36364 16.4895 5.16953C17.8526 4.28204 19.3757 3.66893 20.9735 3.36453C23.0429 2.97661 24.8273 3.69228 26.4851 4.84178C27.6397 5.62645 28.6144 6.64756 29.3446 7.83745C30.0143 9.05186 30.1933 10.4784 29.8418 11.8195C29.4834 13.2842 28.9574 14.7028 28.2743 16.047L27.9212 16.8339C27.4129 17.9629 26.9047 19.0918 26.3853 20.2175C26.2795 20.5191 26.0583 20.7662 25.7703 20.9049C25.4824 21.0435 25.1512 21.0622 24.8495 20.9569C23.9549 20.6732 23.1503 20.1598 22.5161 19.468C21.8818 18.7763 21.44 17.9303 21.2348 17.0144C21.0843 15.7003 21.2981 14.3719 21.8523 13.1733C22.3083 11.9921 22.8181 10.8347 23.3295 9.67728L23.7222 8.78586C23.7812 8.68831 23.8197 8.57975 23.8354 8.46681C23.8511 8.35387 23.8436 8.23892 23.8133 8.12898C23.7831 8.01903 23.7308 7.91641 23.6596 7.82735C23.5884 7.7383 23.4998 7.6647 23.3992 7.61103C22.6682 7.78142 22.0059 8.16888 21.4992 8.72253C20.6037 9.61427 19.7509 10.5479 18.9437 11.5203C17.3124 13.5625 15.921 15.7853 14.7969 18.1449C14.0928 19.5025 13.6543 20.9819 13.5049 22.5039C13.3559 23.6735 13.3933 24.8594 13.6158 26.0173C13.7382 26.752 14.1091 27.4225 14.6664 27.9167C15.2238 28.411 15.9338 28.699 16.6779 28.7327C19.5295 28.891 22.3621 28.1579 24.7783 26.63C25.6998 25.9967 26.5848 25.3143 27.4303 24.5812C28.621 23.457 29.609 22.1761 30.5305 20.8445Z" fill="#0C0D12" style="fill:#0C0D12;fill:color(display-p3 0.0478 0.0527 0.0722);fill-opacity:1;"/>
</g>
<defs>
<clipPath id="clip0_53_10425">
<rect width="38" height="38" fill="white" style="fill:white;fill-opacity:1;" transform="translate(0.666992)"/>
</clipPath>
</defs>
</svg>
