<svg width="190" height="38" viewBox="0 0 190 32" fill="none" xmlns="http://www.w3.org/2000/svg">
<path d="M48.6871 8.63086C47.864 8.63086 47.041 8.94582 46.4712 9.51275L44.0653 11.9064C43.4322 12.5364 43.1156 13.4183 43.1789 14.3631V14.4891C43.2422 15.182 43.5588 15.812 44.0653 16.3159C44.3819 16.6309 44.7617 16.8828 45.2682 17.0088C45.2682 17.1348 45.2682 17.2608 45.2682 17.4498C45.2682 18.0797 45.015 18.6466 44.5718 19.0875L44.4452 19.2135C43.6221 18.9616 42.989 18.5206 42.3559 17.9537C41.5328 17.1348 41.0263 16.1899 40.8364 15.0561V14.9301L40.7098 15.0561C40.6464 15.119 40.5198 15.182 40.4565 15.245L38.0506 17.6387C36.8477 18.8356 36.8477 20.8513 38.0506 22.0482C38.6838 22.6781 39.4435 22.9301 40.2666 22.9301C41.0896 22.9301 41.8494 22.6151 42.4825 22.0482L44.8884 19.6545C46.0913 18.4576 46.0913 16.4419 44.8884 15.245C44.5718 14.9301 44.1919 14.6781 43.7487 14.5521C43.7487 14.4261 43.7487 14.2372 43.7487 14.1112C43.7487 13.4183 44.002 12.7883 44.5085 12.2844C45.3316 12.5364 46.028 12.9773 46.5978 13.6072C47.4209 14.4261 47.9274 15.371 48.1173 16.5049V16.6309L48.2439 16.5049C48.3072 16.4419 48.4339 16.3789 48.4972 16.3159L50.903 13.9222C52.106 12.7253 52.106 10.7096 50.903 9.51275C50.3332 8.94582 49.5102 8.63086 48.6871 8.63086Z" fill="#ECF2FF" style="fill:#ECF2FF;fill:color(display-p3 0.9250 0.9475 1.0000);fill-opacity:1;"/>
<path d="M47.4209 0H16.1446C7.2176 0 0 7.1811 0 16C0 24.8189 7.2176 32 16.1446 32H47.4209C56.348 32 63.5656 24.8189 63.5656 16C63.5656 7.1811 56.348 0 47.4209 0ZM31.9727 25.0709C31.4662 25.1968 30.8964 25.1968 30.4532 24.7559C30.3266 25.0709 29.9467 24.8819 29.6935 24.8819C29.6935 24.9449 29.6935 25.0079 29.6302 25.0709C28.7438 25.0709 28.1107 24.252 27.6675 23.5591C26.8444 23.1181 25.8947 22.8661 25.0717 22.3622C25.0717 23.1181 25.1983 24.063 24.4386 24.5669C24.4386 26.0158 26.6545 24.7559 26.9077 25.8268C26.7178 25.8268 26.5912 25.8268 26.4645 25.9528C25.8947 26.5197 25.1983 25.5118 24.5019 25.9528C23.6155 26.3937 23.4889 26.7717 22.3492 26.8976C22.3492 26.7717 22.3492 26.7717 22.3492 26.7087C22.6658 26.3307 22.6658 25.8898 23.2356 25.7638C22.6658 25.7008 22.2226 25.9528 21.7161 26.2047C21.083 26.4567 21.083 25.6378 20.1333 26.2047C20.0067 26.1417 20.1333 26.0158 20.1333 25.9528C20.3866 25.6378 20.7031 25.6378 21.0197 25.6378C19.2469 24.6929 18.4239 26.8347 17.6008 25.7638C17.3476 25.8268 17.2843 26.0157 17.0943 26.2047C16.9677 26.0787 17.0943 25.8898 17.0943 25.7008C16.9044 25.6378 16.7144 25.5748 16.7778 25.3228C16.4612 25.1969 16.2713 25.3858 16.018 25.5748C15.8281 25.3858 16.1446 25.1969 16.208 25.0079C16.3979 24.6929 16.8411 24.9449 17.031 24.6929C17.6641 24.378 18.4872 24.8819 19.1836 24.8189C19.6901 24.8819 20.3866 24.315 20.1333 23.811C19.5635 23.0551 19.6901 22.1102 19.6268 21.2284C19.5635 20.7244 18.2973 20.0945 17.9807 19.5276C17.5375 19.0236 17.2209 18.4567 16.8411 17.8898C15.5748 15.4961 16.018 12.4724 14.4352 10.2677C13.7388 10.6457 12.7891 10.4567 12.2193 9.95275C11.9027 10.2677 11.9027 10.6457 11.8394 11.0236C11.0797 10.2677 11.143 8.75591 11.8394 7.87402C12.0927 7.55906 12.4092 7.24409 12.7258 6.99213C12.7891 6.99213 12.8524 6.86614 12.8524 6.80315C13.4855 4.03149 17.7274 4.53543 19.057 6.55118C20.0067 7.74803 20.3233 9.38583 21.3996 10.4567C22.8557 12.0945 24.5652 13.4803 25.958 15.1811C27.2243 16.7559 28.174 18.5827 28.997 20.4724C29.3136 21.1024 29.3136 21.8583 29.8201 22.3622C30.0733 22.6772 31.213 23.5591 30.9597 23.874C31.0863 24.189 32.226 24.6299 31.8461 24.9449L31.9727 25.0709ZM52.6125 15.622L50.2067 18.0157C49.5735 18.6457 48.8138 19.1496 47.9274 19.4016C47.6742 20.1575 47.231 20.7874 46.6612 21.3543L44.2553 23.748C43.2423 24.7559 41.8494 25.3228 40.3299 25.3228C38.8104 25.3228 37.4809 24.7559 36.4046 23.748C34.252 21.6063 34.252 18.1417 36.4046 16L38.8104 13.6063C39.4436 12.9764 40.2033 12.5354 41.0897 12.2205C41.3429 11.4646 41.7861 10.8346 42.3559 10.2677L44.7618 7.87402C45.7748 6.86615 47.1677 6.29922 48.6872 6.29922C50.2067 6.29922 51.5362 6.86615 52.6125 7.87402C53.6255 8.8819 54.2586 10.2677 54.2586 11.7165C54.2586 13.1654 53.6888 14.5512 52.6125 15.5591V15.622Z" fill="#ECF2FF" style="fill:#ECF2FF;fill:color(display-p3 0.9250 0.9475 1.0000);fill-opacity:1;"/>
<path d="M22.2857 22.2383C22.0958 23.0572 22.0325 24.443 20.9562 24.443C20.8929 24.884 21.2727 25.0729 21.6526 24.9469C22.0325 24.758 22.2224 25.0729 22.349 25.3879C22.9189 25.4509 23.8052 25.1989 23.8052 24.506C22.9189 24.0021 22.6656 23.0572 22.2857 22.2383Z" fill="#ECF2FF" style="fill:#ECF2FF;fill:color(display-p3 0.9250 0.9475 1.0000);fill-opacity:1;"/>
<path d="M78.5073 8.37891H75.6582V25.5128H87.8142V22.8041H78.5073V8.37891Z" fill="#ECF2FF" style="fill:#ECF2FF;fill:color(display-p3 0.9250 0.9475 1.0000);fill-opacity:1;"/>
<path d="M102.123 25.5116H104.972V25.3856C104.972 25.3856 104.972 25.0076 104.972 24.5037V18.1415C104.972 15.7478 106.745 14.6769 108.391 14.6769C110.037 14.6769 110.987 15.6218 110.987 17.5746V25.6376H113.836V17.1966C113.836 13.984 111.81 12.0312 108.518 12.0312C105.225 12.0312 105.858 12.4092 104.909 13.1651V12.2832H102.186V25.6376L102.123 25.5116Z" fill="#ECF2FF" style="fill:#ECF2FF;fill:color(display-p3 0.9250 0.9475 1.0000);fill-opacity:1;"/>
<path d="M125.359 13.1031C124.346 12.2842 123.08 11.9062 121.687 11.9062C117.888 11.9062 115.482 14.5519 115.482 18.7724C115.482 22.9929 117.888 25.6385 121.687 25.6385C125.486 25.6385 124.22 25.2606 125.169 24.5677C125.106 26.6464 123.776 27.8433 121.624 27.8433C119.471 27.8433 118.838 27.2763 118.585 26.1425V26.0165L115.799 26.8354V26.9614C116.305 29.1661 118.395 30.5519 121.434 30.5519C124.473 30.5519 125.106 29.985 126.246 28.9141C127.385 27.7803 127.955 26.2055 127.955 24.1267V12.1582H125.359V13.1661V13.1031ZM125.169 18.8354C125.169 21.3551 123.903 22.9299 121.814 22.9299C119.724 22.9299 118.268 21.4181 118.268 18.7094C118.268 16.0007 119.534 14.5519 121.814 14.5519C124.093 14.5519 125.106 16.0637 125.169 18.5204V18.8354Z" fill="#ECF2FF" style="fill:#ECF2FF;fill:color(display-p3 0.9250 0.9475 1.0000);fill-opacity:1;"/>
<path d="M142.009 20.0945C141.439 21.9842 139.919 23.0551 137.767 23.0551C134.664 23.0551 132.765 20.7244 132.765 17.0079C132.765 13.2913 134.664 10.9606 137.83 10.9606C140.995 10.9606 141.249 11.7795 141.882 13.6693L142.198 14.5512L144.858 13.2913L144.604 12.5984C143.591 9.76377 141.249 8.25195 137.767 8.25195C134.284 8.25195 133.461 9.07086 132.005 10.7087C130.612 12.2835 129.853 14.4882 129.853 17.0709C129.853 22.4252 132.955 25.8897 137.767 25.8897C142.578 25.8897 143.781 24.126 144.794 21.1653L145.047 20.4094L142.325 19.3386L142.072 20.1575L142.009 20.0945Z" fill="#ECF2FF" style="fill:#ECF2FF;fill:color(display-p3 0.9250 0.9475 1.0000);fill-opacity:1;"/>
<path d="M152.583 11.9075C151.254 11.9075 150.051 12.2855 149.101 12.9784V6.74219H146.252V25.5138H149.101V18.0808C149.101 15.6871 150.874 14.5532 152.52 14.5532C154.166 14.5532 155.116 15.4981 155.116 17.4508V25.5138H157.965V17.0729C157.965 13.9233 155.875 11.9075 152.647 11.9075H152.583Z" fill="#ECF2FF" style="fill:#ECF2FF;fill:color(display-p3 0.9250 0.9475 1.0000);fill-opacity:1;"/>
<path d="M174.489 6.29883C173.413 6.29883 172.653 7.05473 172.653 8.1256C172.653 9.19646 173.413 9.95236 174.489 9.95236C175.566 9.95236 176.325 9.19646 176.325 8.1256C176.325 7.05473 175.566 6.29883 174.489 6.29883Z" fill="#ECF2FF" style="fill:#ECF2FF;fill:color(display-p3 0.9250 0.9475 1.0000);fill-opacity:1;"/>
<path d="M184.618 11.9062C183.225 11.9062 181.959 12.2842 181.01 13.0401V12.1582H178.287V25.5126H181.136V18.0795C181.136 15.6858 182.909 14.6149 184.555 14.6149C186.201 14.6149 187.151 15.5598 187.151 17.5125V25.5755H190V17.1346C190 13.922 187.974 11.9692 184.682 11.9692L184.618 11.9062Z" fill="#ECF2FF" style="fill:#ECF2FF;fill:color(display-p3 0.9250 0.9475 1.0000);fill-opacity:1;"/>
<path d="M175.882 12.0957H173.033V18.7099C172.273 18.08 171.323 17.576 170.31 17.2611V16.5682C170.31 13.6075 168.348 11.8438 165.119 11.8438C161.89 11.8438 160.497 13.1036 159.674 15.2453L159.484 15.8123L161.763 17.4501L162.143 16.4422C162.65 15.1193 163.599 14.4894 165.119 14.4894C166.638 14.4894 167.525 15.2453 167.525 16.6942C167.461 16.7571 167.335 16.7571 167.271 16.7571C164.232 16.7571 162.016 17.3871 160.687 18.8359C159.294 20.2847 159.421 21.9855 159.484 22.1745V22.3004C159.674 24.3792 161.51 25.702 164.106 25.702C166.701 25.702 166.891 25.3241 167.904 24.5682V25.4501H170.374V21.2926C170.057 20.9776 169.424 20.6627 168.538 20.5367C168.284 20.5367 167.968 20.5367 167.714 20.5367H167.588V20.9146C167.588 21.7965 166.575 23.0564 164.296 23.0564C162.016 23.0564 162.396 22.3634 162.396 21.9225C162.396 21.6705 162.46 21.2296 162.903 20.7886C163.409 20.2217 164.612 19.5918 167.271 19.6548C169.234 19.6548 170.69 20.2217 171.703 21.2296C172.906 22.4894 173.159 24.2532 173.223 24.8831V25.4501H176.072V12.0957H175.882Z" fill="#ECF2FF" style="fill:#ECF2FF;fill:color(display-p3 0.9250 0.9475 1.0000);fill-opacity:1;"/>
<path d="M94.7782 11.8423C92.1191 11.8423 90.1564 13.1021 89.3333 15.2439L89.1434 15.8108L91.4226 17.4486L91.8025 16.4407C92.309 15.1179 93.2587 14.488 94.7782 14.488C96.2977 14.488 97.1841 15.2439 97.1841 16.6927V17.0076L94.2717 17.5116C90.8528 18.1415 89.0801 19.5903 89.0801 21.858C89.0801 24.1258 90.9161 25.6376 93.7652 25.6376C96.6142 25.6376 96.5509 25.2596 97.5639 24.5037V25.3856H100.033V16.5037C100.033 13.5431 98.0704 11.7793 94.8415 11.7793L94.7782 11.8423ZM97.1207 19.6533V20.8502C97.1207 21.732 96.1077 22.9919 93.8285 22.9919C91.5493 22.9919 91.9291 22.299 91.9291 21.858C91.9291 21.4171 91.9291 20.5982 94.9048 20.0943L97.1841 19.7163L97.1207 19.6533Z" fill="#ECF2FF" style="fill:#ECF2FF;fill:color(display-p3 0.9250 0.9475 1.0000);fill-opacity:1;"/>
</svg>
