<svg width="37" height="36" viewBox="0 0 37 36" fill="none" xmlns="http://www.w3.org/2000/svg">
<g clip-path="url(#clip0_994_2994)">
<rect x="0.5" width="36" height="36" rx="18" fill="#D9E4FF" style="fill:#D9E4FF;fill:color(display-p3 0.8500 0.8953 1.0000);fill-opacity:1;"/>
<rect width="25.9" height="1.4" transform="matrix(0.965926 0.258819 0.258819 -0.965926 -7.27148 23.3359)" fill="#0C0D12" style="fill:#0C0D12;fill:color(display-p3 0.0478 0.0527 0.0722);fill-opacity:1;"/>
<rect width="25.9" height="1.4" transform="matrix(0.965926 0.258819 0.258819 -0.965926 -5.09668 15.2222)" fill="#0C0D12" style="fill:#0C0D12;fill:color(display-p3 0.0478 0.0527 0.0722);fill-opacity:1;"/>
<rect width="25.9" height="1.4" transform="matrix(0.965926 0.258819 0.258819 -0.965926 -2.92285 7.1084)" fill="#0C0D12" style="fill:#0C0D12;fill:color(display-p3 0.0478 0.0527 0.0722);fill-opacity:1;"/>
<rect width="25.9" height="1.4" transform="matrix(0.965926 0.258819 0.258819 -0.965926 -0.749023 -1.00513)" fill="#0C0D12" style="fill:#0C0D12;fill:color(display-p3 0.0478 0.0527 0.0722);fill-opacity:1;"/>
<rect width="16.8" height="5.6" transform="matrix(0.965926 0.258819 0.258819 -0.965926 14.6309 33.553)" fill="#0C0D12" style="fill:#0C0D12;fill:color(display-p3 0.0478 0.0527 0.0722);fill-opacity:1;"/>
<rect width="24.1461" height="5.6" transform="matrix(0.965926 0.258819 0.258819 -0.965926 12.0713 24.1709)" fill="#0C0D12" style="fill:#0C0D12;fill:color(display-p3 0.0478 0.0527 0.0722);fill-opacity:1;"/>
<rect width="25.4927" height="5.6" transform="matrix(0.965926 0.258819 0.258819 -0.965926 14.2461 16.0574)" fill="#0C0D12" style="fill:#0C0D12;fill:color(display-p3 0.0478 0.0527 0.0722);fill-opacity:1;"/>
<rect width="16.8" height="5.6" transform="matrix(0.965926 0.258819 0.258819 -0.965926 21.1523 9.21167)" fill="#0C0D12" style="fill:#0C0D12;fill:color(display-p3 0.0478 0.0527 0.0722);fill-opacity:1;"/>
</g>
<defs>
<clipPath id="clip0_994_2994">
<rect x="0.5" width="36" height="36" rx="18" fill="white" style="fill:white;fill-opacity:1;"/>
</clipPath>
</defs>
</svg>
