<svg width="35" height="36" viewBox="0 0 35 36" fill="none" xmlns="http://www.w3.org/2000/svg">
<path d="M32.692 14.7346C33.4968 12.2832 33.2197 9.59775 31.9327 7.36795C29.9974 3.94788 26.1066 2.18834 22.3068 3.01636C20.6164 1.08356 18.1878 -0.0155834 15.6416 0.00016698C11.7575 -0.00883321 8.31131 2.52922 7.11638 6.28005C4.62122 6.79869 2.46747 8.38385 1.20714 10.6305C-0.742651 14.0416 -0.298155 18.3414 2.30674 21.2665C1.502 23.7179 1.77911 26.4034 3.06604 28.6332C5.00143 32.0532 8.89215 33.8128 12.692 32.9847C14.3813 34.9175 16.811 36.0167 19.3572 35.9998C23.2435 36.0099 26.6908 33.4696 27.8857 29.7154C30.3809 29.1968 32.5346 27.6116 33.795 25.365C35.7425 21.9539 35.2969 17.6574 32.6931 14.7324L32.692 14.7346ZM19.3594 33.6474C17.8042 33.6496 16.2978 33.0973 15.104 32.0859C15.1583 32.0566 15.2525 32.0037 15.3135 31.9655L22.3766 27.8254C22.738 27.6173 22.9597 27.2269 22.9575 26.805V16.6989L25.9426 18.4483C25.9747 18.4641 25.9958 18.4956 26.0002 18.5316V26.9006C25.9958 30.6222 23.0262 33.6395 19.3594 33.6474ZM5.07791 27.4564C4.29866 26.0906 4.01822 24.4897 4.28536 22.936C4.33745 22.9675 4.42946 23.0249 4.49486 23.0632L11.558 27.2032C11.916 27.4159 12.3594 27.4159 12.7186 27.2032L21.3413 22.1496V25.6485C21.3436 25.6845 21.3269 25.7193 21.2992 25.7418L14.1596 29.9258C10.9794 31.7843 6.91797 30.6796 5.07902 27.4564H5.07791ZM3.21901 11.8084C3.99494 10.4404 5.21979 9.39412 6.67854 8.85073C6.67854 8.91261 6.67521 9.02174 6.67521 9.09824V17.3795C6.67299 17.8003 6.89469 18.1907 7.25494 18.3988L15.8777 23.4513L12.8926 25.2007C12.8627 25.221 12.825 25.2243 12.7917 25.2097L5.65099 21.0224C2.47745 19.1571 1.38893 15.0361 3.2179 11.8095L3.21901 11.8084ZM27.745 17.6012L19.1222 12.5476L22.1073 10.7993C22.1372 10.779 22.1749 10.7756 22.2082 10.7903L29.3489 14.9742C32.528 16.8384 33.6176 20.9661 31.7809 24.1927C31.0038 25.5585 29.7801 26.6047 28.3225 27.1492V18.6204C28.3258 18.1997 28.1052 17.8104 27.7461 17.6012H27.745ZM30.7156 13.0628C30.6635 13.0302 30.5715 12.9739 30.5061 12.9357L23.443 8.79561C23.085 8.58298 22.6416 8.58298 22.2824 8.79561L13.6597 13.8492V10.3504C13.6574 10.3144 13.6741 10.2795 13.7018 10.257L20.8414 6.07642C24.0216 4.21451 28.0875 5.32266 29.9209 8.55148C30.6957 9.915 30.9761 11.5114 30.7134 13.0628H30.7156ZM12.0369 19.2988L9.05066 17.5494C9.01851 17.5337 8.99745 17.5022 8.99302 17.4662V9.09711C8.99523 5.37103 11.9737 2.35147 15.6449 2.35372C17.1979 2.35372 18.701 2.90723 19.8948 3.91525C19.8405 3.9445 19.7474 3.99738 19.6853 4.03563L12.6221 8.17572C12.2608 8.38385 12.0391 8.77311 12.0413 9.19499L12.0369 19.2966V19.2988ZM13.6586 15.7505L17.4994 13.4993L21.3402 15.7494V20.2506L17.4994 22.5006L13.6586 20.2506V15.7505Z" fill="#D9E4FF" style="fill:#D9E4FF;fill:color(display-p3 0.8500 0.8953 1.0000);fill-opacity:1;"/>
</svg>
