<svg width="19" height="19" viewBox="0 0 19 19" fill="none" xmlns="http://www.w3.org/2000/svg">
<g clip-path="url(#clip0_544_2882)">
<path d="M13.6048 16.6875V15.1458C13.6048 14.3281 13.28 13.5438 12.7017 12.9656C12.1235 12.3874 11.3392 12.0625 10.5215 12.0625H4.35482C3.53707 12.0625 2.75281 12.3874 2.17457 12.9656C1.59633 13.5438 1.27148 14.3281 1.27148 15.1458V16.6875" stroke="#BBD0FF" style="stroke:#BBD0FF;stroke:color(display-p3 0.7333 0.8138 1.0000);stroke-opacity:1;" stroke-linecap="round" stroke-linejoin="round"/>
<path d="M7.43685 8.97917C9.13973 8.97917 10.5202 7.59871 10.5202 5.89583C10.5202 4.19296 9.13973 2.8125 7.43685 2.8125C5.73397 2.8125 4.35352 4.19296 4.35352 5.89583C4.35352 7.59871 5.73397 8.97917 7.43685 8.97917Z" stroke="#BBD0FF" style="stroke:#BBD0FF;stroke:color(display-p3 0.7333 0.8138 1.0000);stroke-opacity:1;" stroke-linecap="round" stroke-linejoin="round"/>
<path d="M18.2285 16.6875V15.1458C18.228 14.4627 18.0006 13.799 17.5821 13.2591C17.1635 12.7192 16.5775 12.3335 15.916 12.1627" stroke="#BBD0FF" style="stroke:#BBD0FF;stroke:color(display-p3 0.7333 0.8138 1.0000);stroke-opacity:1;" stroke-linecap="round" stroke-linejoin="round"/>
<path d="M12.834 2.91272C13.4972 3.08254 14.0851 3.46826 14.5049 4.00908C14.9247 4.54991 15.1525 5.21507 15.1525 5.8997C15.1525 6.58433 14.9247 7.24949 14.5049 7.79031C14.0851 8.33114 13.4972 8.71686 12.834 8.88668" stroke="#BBD0FF" style="stroke:#BBD0FF;stroke:color(display-p3 0.7333 0.8138 1.0000);stroke-opacity:1;" stroke-linecap="round" stroke-linejoin="round"/>
</g>
<defs>
<clipPath id="clip0_544_2882">
<rect width="18.5" height="18.5" fill="white" style="fill:white;fill-opacity:1;" transform="translate(0.5 0.5)"/>
</clipPath>
</defs>
</svg>
